<?xml version="1.0" encoding="utf-8" standalone="no"?>
<!DOCTYPE svg PUBLIC "-//W3C//DTD SVG 1.1//EN"
  "http://www.w3.org/Graphics/SVG/1.1/DTD/svg11.dtd">
<svg xmlns:xlink="http://www.w3.org/1999/xlink" width="184pt" height="155pt" viewBox="0 0 184 155" xmlns="http://www.w3.org/2000/svg" version="1.1">
 <metadata>
  <rdf:RDF xmlns:dc="http://purl.org/dc/elements/1.1/" xmlns:cc="http://creativecommons.org/ns#" xmlns:rdf="http://www.w3.org/1999/02/22-rdf-syntax-ns#">
   <cc:Work>
    <dc:type rdf:resource="http://purl.org/dc/dcmitype/StillImage"/>
    <dc:date>2026-08-12T22:46:07.875213</dc:date>
    <dc:format>image/svg+xml</dc:format>
    <dc:creator>
     <cc:Agent>
      <dc:title>Matplotlib v3.9.2, https://matplotlib.org/</dc:title>
     </cc:Agent>
    </dc:creator>
   </cc:Work>
  </rdf:RDF>
 </metadata>
 <defs>
  <style type="text/css">*{stroke-linejoin: round; stroke-linecap: butt}</style>
 </defs>
 <g id="figure_1">
  <g id="patch_1">
   <path d="M 0 155 
L 184 155 
L 184 0 
L 0 0 
L 0 155 
z
" style="fill: none; opacity: 0"/>
  </g>
  <g id="axes_1">
   <g id="patch_2">
    <path d="M 23 137.95 
L 165.6 137.95 
L 165.6 18.6 
L 23 18.6 
L 23 137.95 
z
" style="fill: none"/>
   </g>
   <g id="matplotlib.axis_1">
    <g id="xtick_1">
     <g id="line2d_1">
      <defs>
       <path id="m68abff9d66" d="M 0 0 
L 0 3.5 
" style="stroke: #000000; stroke-width: 0.8"/>
      </defs>
      <g>
       <use xlink:href="#m68abff9d66" x="49.566325" y="137.95" style="stroke: #000000; stroke-width: 0.8"/>
      </g>
     </g>
     <g id="text_1">
      <text style="font: 12px 'Helvetica'; text-anchor: middle" x="49.566325" y="153.558125" transform="rotate(-0 49.566325 153.558125)">−120</text>
     </g>
    </g>
    <g id="xtick_2">
     <g id="line2d_2">
      <g>
       <use xlink:href="#m68abff9d66" x="86.083611" y="137.95" style="stroke: #000000; stroke-width: 0.8"/>
      </g>
     </g>
     <g id="text_2">
      <text style="font: 12px 'Helvetica'; text-anchor: middle" x="86.083611" y="153.558125" transform="rotate(-0 86.083611 153.558125)">−80</text>
     </g>
    </g>
    <g id="xtick_3">
     <g id="line2d_3">
      <g>
       <use xlink:href="#m68abff9d66" x="122.600896" y="137.95" style="stroke: #000000; stroke-width: 0.8"/>
      </g>
     </g>
     <g id="text_3">
      <text style="font: 12px 'Helvetica'; text-anchor: middle" x="122.600896" y="153.558125" transform="rotate(-0 122.600896 153.558125)">−40</text>
     </g>
    </g>
    <g id="xtick_4">
     <g id="line2d_4">
      <g>
       <use xlink:href="#m68abff9d66" x="159.118182" y="137.95" style="stroke: #000000; stroke-width: 0.8"/>
      </g>
     </g>
     <g id="text_4">
      <text style="font: 12px 'Helvetica'; text-anchor: middle" x="159.118182" y="153.558125" transform="rotate(-0 159.118182 153.558125)">0</text>
     </g>
    </g>
    <g id="text_5">
     <text style="font: 12px 'Helvetica'; text-anchor: middle" x="94.3" y="168.755625" transform="rotate(-0 94.3 168.755625)">time (ms)</text>
    </g>
   </g>
   <g id="matplotlib.axis_2">
    <g id="ytick_1">
     <g id="line2d_5">
      <defs>
       <path id="m060ae73510" d="M 0 0 
L -3.5 0 
" style="stroke: #000000; stroke-width: 0.8"/>
      </defs>
      <g>
       <use xlink:href="#m060ae73510" x="23" y="135.206328" style="stroke: #000000; stroke-width: 0.8"/>
      </g>
     </g>
     <g id="text_6">
      <text style="font: 12px 'Helvetica'; text-anchor: end" x="16" y="139.51039" transform="rotate(-0 16 139.51039)">0.00</text>
     </g>
    </g>
    <g id="ytick_2">
     <g id="line2d_6">
      <g>
       <use xlink:href="#m060ae73510" x="23" y="100.594952" style="stroke: #000000; stroke-width: 0.8"/>
      </g>
     </g>
     <g id="text_7">
      <text style="font: 12px 'Helvetica'; text-anchor: end" x="16" y="104.899014" transform="rotate(-0 16 104.899014)">0.25</text>
     </g>
    </g>
    <g id="ytick_3">
     <g id="line2d_7">
      <g>
       <use xlink:href="#m060ae73510" x="23" y="65.983576" style="stroke: #000000; stroke-width: 0.8"/>
      </g>
     </g>
     <g id="text_8">
      <text style="font: 12px 'Helvetica'; text-anchor: end" x="16" y="70.287638" transform="rotate(-0 16 70.287638)">0.50</text>
     </g>
    </g>
    <g id="ytick_4">
     <g id="line2d_8">
      <g>
       <use xlink:href="#m060ae73510" x="23" y="31.3722" style="stroke: #000000; stroke-width: 0.8"/>
      </g>
     </g>
     <g id="text_9">
      <text style="font: 12px 'Helvetica'; text-anchor: end" x="16" y="35.676263" transform="rotate(-0 16 35.676263)">0.75</text>
     </g>
    </g>
   </g>
   <g id="line2d_9">
    <path d="M 29.481818 127.336641 
L 31.307682 127.120804 
L 33.133547 126.899417 
L 34.959411 126.659456 
L 36.785275 126.41283 
L 38.61114 126.153642 
L 40.437004 125.89269 
L 42.262868 125.636259 
L 44.088732 125.349733 
L 45.914597 125.021096 
L 47.740461 124.677919 
L 49.566325 124.352699 
L 51.39219 124.017213 
L 53.218054 123.663047 
L 55.043918 123.284658 
L 56.869782 122.890785 
L 58.695647 122.451139 
L 60.521511 121.991035 
L 62.347375 121.521655 
L 64.173239 121.022386 
L 65.999104 120.513288 
L 67.824968 119.954557 
L 69.650832 119.376996 
L 71.476697 118.762458 
L 73.302561 118.13607 
L 75.128425 117.501461 
L 76.954289 116.836168 
L 78.780154 116.156265 
L 80.606018 115.429314 
L 82.431882 114.68918 
L 84.257746 113.935263 
L 86.083611 113.135902 
L 87.909475 112.332172 
L 89.735339 111.477557 
L 91.561204 110.633365 
L 93.387068 109.752508 
L 95.212932 108.826509 
L 97.038796 107.850101 
L 98.864661 106.855882 
L 100.690525 105.838009 
L 102.516389 104.817186 
L 104.342254 103.811609 
L 106.168118 102.779147 
L 107.993982 101.75301 
L 109.819846 100.74636 
L 111.645711 99.716321 
L 113.471575 98.675703 
L 115.297439 97.646285 
L 117.123303 96.640296 
L 118.949168 95.662095 
L 120.775032 94.702715 
L 122.600896 93.770188 
L 124.426761 92.870537 
L 126.252625 91.993344 
L 128.078489 91.178548 
L 129.904353 90.390544 
L 131.730218 89.660241 
L 133.556082 88.980733 
L 135.381946 88.345097 
L 137.20781 87.778998 
L 139.033675 87.261338 
L 140.859539 86.796357 
L 142.685403 86.38829 
L 144.511268 86.013746 
L 146.337132 85.70058 
L 148.162996 85.451697 
L 149.98886 85.256447 
L 151.814725 85.137583 
L 153.640589 85.111584 
L 155.466453 85.205279 
L 157.292318 85.56467 
L 159.118182 85.880489 
" clip-path="url(#pba6e558211)" style="fill: none; stroke-dasharray: 7.4,3.2; stroke-dashoffset: 0; stroke: #daa520; stroke-width: 2"/>
   </g>
   <g id="line2d_10">
    <path d="M 29.481818 132.525 
L 31.307682 131.833731 
L 33.133547 130.515703 
L 34.959411 130.049214 
L 36.785275 129.745299 
L 38.61114 130.280259 
L 40.437004 129.110032 
L 42.262868 128.053206 
L 44.088732 129.544022 
L 45.914597 128.919291 
L 47.740461 128.691804 
L 49.566325 127.814124 
L 51.39219 127.107234 
L 53.218054 127.48388 
L 55.043918 127.494359 
L 56.869782 125.940701 
L 58.695647 125.885882 
L 60.521511 125.58988 
L 62.347375 124.771513 
L 64.173239 124.755441 
L 65.999104 124.04744 
L 67.824968 124.020964 
L 69.650832 123.550299 
L 71.476697 122.985949 
L 73.302561 122.358351 
L 75.128425 122.342416 
L 76.954289 121.853416 
L 78.780154 122.275325 
L 80.606018 121.716815 
L 82.431882 121.267697 
L 84.257746 121.25371 
L 86.083611 119.897147 
L 87.909475 119.33465 
L 89.735339 117.341697 
L 91.561204 117.527543 
L 93.387068 116.386998 
L 95.212932 116.861806 
L 97.038796 115.749766 
L 98.864661 114.72366 
L 100.690525 114.603918 
L 102.516389 113.376503 
L 104.342254 112.314457 
L 106.168118 111.082404 
L 107.993982 110.918063 
L 109.819846 110.092156 
L 111.645711 109.291648 
L 113.471575 109.433438 
L 115.297439 108.178754 
L 117.123303 106.004967 
L 118.949168 104.501146 
L 120.775032 104.24765 
L 122.600896 102.404837 
L 124.426761 100.329512 
L 126.252625 99.482849 
L 128.078489 98.307777 
L 129.904353 96.431502 
L 131.730218 94.531174 
L 133.556082 92.241322 
L 135.381946 89.865638 
L 137.20781 89.012623 
L 139.033675 85.617489 
L 140.859539 83.777469 
L 142.685403 82.188778 
L 144.511268 81.236119 
L 146.337132 80.2054 
L 148.162996 78.528319 
L 149.98886 78.066963 
L 151.814725 79.087056 
L 153.640589 78.157256 
L 155.466453 76.826257 
L 157.292318 77.75117 
L 159.118182 77.551794 
" clip-path="url(#pba6e558211)" style="fill: none; stroke: #daa520; stroke-opacity: 0.95; stroke-width: 2; stroke-linecap: square"/>
   </g>
   <g id="line2d_11">
    <path d="M 29.481818 127.337058 
L 31.307682 127.099456 
L 33.133547 126.837297 
L 34.959411 126.555423 
L 36.785275 126.262175 
L 38.61114 125.95294 
L 40.437004 125.66251 
L 42.262868 125.362763 
L 44.088732 125.057676 
L 45.914597 124.756254 
L 47.740461 124.456553 
L 49.566325 124.160907 
L 51.39219 123.863836 
L 53.218054 123.511807 
L 55.043918 123.161718 
L 56.869782 122.796883 
L 58.695647 122.421014 
L 60.521511 122.026231 
L 62.347375 121.591609 
L 64.173239 121.141442 
L 65.999104 120.664389 
L 67.824968 120.140392 
L 69.650832 119.590786 
L 71.476697 118.999193 
L 73.302561 118.401775 
L 75.128425 117.754028 
L 76.954289 117.087044 
L 78.780154 116.377112 
L 80.606018 115.65035 
L 82.431882 114.899844 
L 84.257746 114.126208 
L 86.083611 113.292075 
L 87.909475 112.435856 
L 89.735339 111.56684 
L 91.561204 110.665471 
L 93.387068 109.727351 
L 95.212932 108.770254 
L 97.038796 107.793904 
L 98.864661 106.790007 
L 100.690525 105.757954 
L 102.516389 104.700636 
L 104.342254 103.616109 
L 106.168118 102.552103 
L 107.993982 101.506875 
L 109.819846 100.493783 
L 111.645711 99.516029 
L 113.471575 98.524614 
L 115.297439 97.540739 
L 117.123303 96.563408 
L 118.949168 95.62488 
L 120.775032 94.700315 
L 122.600896 93.829622 
L 124.426761 92.986144 
L 126.252625 92.151016 
L 128.078489 91.37298 
L 129.904353 90.63819 
L 131.730218 89.944948 
L 133.556082 89.282998 
L 135.381946 88.685491 
L 137.20781 88.10379 
L 139.033675 87.57951 
L 140.859539 87.092562 
L 142.685403 86.64858 
L 144.511268 86.253223 
L 146.337132 85.916489 
L 148.162996 85.643702 
L 149.98886 85.424467 
L 151.814725 85.277503 
L 153.640589 85.210068 
L 155.466453 85.26969 
L 157.292318 85.617046 
L 159.118182 85.934609 
" clip-path="url(#pba6e558211)" style="fill: none; stroke-dasharray: 7.4,3.2; stroke-dashoffset: 0; stroke: #ffd700; stroke-width: 2"/>
   </g>
   <g id="line2d_12">
    <path d="M 29.481818 132.523138 
L 31.307682 131.970846 
L 33.133547 131.131795 
L 34.959411 130.238165 
L 36.785275 130.787703 
L 38.61114 130.707286 
L 40.437004 129.553653 
L 42.262868 128.637508 
L 44.088732 128.992801 
L 45.914597 129.862208 
L 47.740461 128.221397 
L 49.566325 128.06873 
L 51.39219 127.243922 
L 53.218054 127.234805 
L 55.043918 125.10714 
L 56.869782 123.773829 
L 58.695647 125.06354 
L 60.521511 122.986189 
L 62.347375 123.03575 
L 64.173239 123.408962 
L 65.999104 123.421086 
L 67.824968 123.050601 
L 69.650832 121.77591 
L 71.476697 122.334257 
L 73.302561 122.843715 
L 75.128425 121.735162 
L 76.954289 121.685047 
L 78.780154 122.007216 
L 80.606018 122.035668 
L 82.431882 121.718336 
L 84.257746 120.184856 
L 86.083611 119.879276 
L 87.909475 118.804742 
L 89.735339 116.854803 
L 91.561204 116.014721 
L 93.387068 116.358064 
L 95.212932 115.077619 
L 97.038796 113.772657 
L 98.864661 113.452212 
L 100.690525 113.32332 
L 102.516389 112.640912 
L 104.342254 110.693266 
L 106.168118 110.430495 
L 107.993982 109.84616 
L 109.819846 109.116736 
L 111.645711 108.52171 
L 113.471575 107.492741 
L 115.297439 107.05106 
L 117.123303 107.516067 
L 118.949168 106.164978 
L 120.775032 104.358094 
L 122.600896 102.235201 
L 124.426761 101.622957 
L 126.252625 99.077976 
L 128.078489 95.577764 
L 129.904353 93.49805 
L 131.730218 91.96858 
L 133.556082 90.317164 
L 135.381946 87.301808 
L 137.20781 85.992455 
L 139.033675 83.975063 
L 140.859539 83.177064 
L 142.685403 81.659648 
L 144.511268 79.293994 
L 146.337132 79.056718 
L 148.162996 77.627863 
L 149.98886 77.281366 
L 151.814725 75.58835 
L 153.640589 75.503935 
L 155.466453 75.020859 
L 157.292318 74.497163 
L 159.118182 73.863371 
" clip-path="url(#pba6e558211)" style="fill: none; stroke: #ffd700; stroke-opacity: 0.95; stroke-width: 2; stroke-linecap: square"/>
   </g>
   <g id="line2d_13">
    <path d="M 29.481818 124.308272 
L 31.307682 123.99841 
L 33.133547 123.680573 
L 34.959411 123.353292 
L 36.785275 123.016331 
L 38.61114 122.668886 
L 40.437004 122.311251 
L 42.262868 121.944322 
L 44.088732 121.565557 
L 45.914597 121.171344 
L 47.740461 120.760942 
L 49.566325 120.336835 
L 51.39219 119.898622 
L 53.218054 119.445097 
L 55.043918 118.97456 
L 56.869782 118.486247 
L 58.695647 117.976451 
L 60.521511 117.444117 
L 62.347375 116.889336 
L 64.173239 116.31017 
L 65.999104 115.706737 
L 67.824968 115.075239 
L 69.650832 114.415076 
L 71.476697 113.723888 
L 73.302561 113.001891 
L 75.128425 112.249645 
L 76.954289 111.465483 
L 78.780154 110.649386 
L 80.606018 109.798154 
L 82.431882 108.912052 
L 84.257746 107.991276 
L 86.083611 107.032905 
L 87.909475 106.038178 
L 89.735339 105.003715 
L 91.561204 103.932305 
L 93.387068 102.821988 
L 95.212932 101.670059 
L 97.038796 100.473417 
L 98.864661 99.232299 
L 100.690525 97.946358 
L 102.516389 96.617297 
L 104.342254 95.24853 
L 106.168118 93.839181 
L 107.993982 92.391675 
L 109.819846 90.909623 
L 111.645711 89.392261 
L 113.471575 87.840121 
L 115.297439 86.255849 
L 117.123303 84.643173 
L 118.949168 83.006087 
L 120.775032 81.347524 
L 122.600896 79.671077 
L 124.426761 77.980769 
L 126.252625 76.279424 
L 128.078489 74.573661 
L 129.904353 72.866308 
L 131.730218 71.163104 
L 133.556082 69.468854 
L 135.381946 67.78747 
L 137.20781 66.125211 
L 139.033675 64.485985 
L 140.859539 62.873944 
L 142.685403 61.293468 
L 144.511268 59.746449 
L 146.337132 58.237429 
L 148.162996 56.771033 
L 149.98886 55.350636 
L 151.814725 53.981696 
L 153.640589 52.671048 
L 155.466453 51.42786 
L 157.292318 50.275232 
L 159.118182 49.20486 
" clip-path="url(#pba6e558211)" style="fill: none; stroke-dasharray: 7.4,3.2; stroke-dashoffset: 0; stroke: #cc5500; stroke-width: 2"/>
   </g>
   <g id="line2d_14">
    <path d="M 29.481818 126.832662 
L 31.307682 126.503063 
L 33.133547 126.520986 
L 34.959411 125.224945 
L 36.785275 126.017691 
L 38.61114 126.083956 
L 40.437004 124.151357 
L 42.262868 122.795823 
L 44.088732 122.122766 
L 45.914597 121.543175 
L 47.740461 119.826289 
L 49.566325 119.852624 
L 51.39219 119.393439 
L 53.218054 118.988597 
L 55.043918 117.708711 
L 56.869782 118.336353 
L 58.695647 117.589909 
L 60.521511 116.821644 
L 62.347375 116.172536 
L 64.173239 115.980529 
L 65.999104 115.923826 
L 67.824968 114.280225 
L 69.650832 114.231327 
L 71.476697 114.442341 
L 73.302561 113.49484 
L 75.128425 113.161758 
L 76.954289 112.04054 
L 78.780154 112.159724 
L 80.606018 110.984378 
L 82.431882 110.031641 
L 84.257746 108.661751 
L 86.083611 107.59194 
L 87.909475 106.159202 
L 89.735339 105.556952 
L 91.561204 103.094942 
L 93.387068 102.25727 
L 95.212932 100.93233 
L 97.038796 99.909499 
L 98.864661 99.006729 
L 100.690525 97.815408 
L 102.516389 96.917466 
L 104.342254 95.931601 
L 106.168118 93.815227 
L 107.993982 92.505475 
L 109.819846 90.724793 
L 111.645711 89.301155 
L 113.471575 89.379946 
L 115.297439 87.7395 
L 117.123303 85.461332 
L 118.949168 82.931206 
L 120.775032 81.633964 
L 122.600896 79.862572 
L 124.426761 77.373447 
L 126.252625 72.841394 
L 128.078489 69.219954 
L 129.904353 65.842338 
L 131.730218 62.078228 
L 133.556082 59.043351 
L 135.381946 54.722241 
L 137.20781 52.473012 
L 139.033675 47.74849 
L 140.859539 45.605897 
L 142.685403 41.750035 
L 144.511268 38.436494 
L 146.337132 37.367963 
L 148.162996 37.052584 
L 149.98886 35.372997 
L 151.814725 31.102465 
L 153.640589 31.310203 
L 155.466453 28.88926 
L 157.292318 27.188899 
L 159.118182 24.025 
" clip-path="url(#pba6e558211)" style="fill: none; stroke: #cc5500; stroke-opacity: 0.95; stroke-width: 2; stroke-linecap: square"/>
   </g>
   <g id="line2d_15">
    <path d="M 29.481818 123.994731 
L 31.307682 123.696709 
L 33.133547 123.38618 
L 34.959411 123.061764 
L 36.785275 122.722962 
L 38.61114 122.368842 
L 40.437004 122.001932 
L 42.262868 121.621886 
L 44.088732 121.228763 
L 45.914597 120.823503 
L 47.740461 120.406817 
L 49.566325 119.97961 
L 51.39219 119.542209 
L 53.218054 119.089669 
L 55.043918 118.622853 
L 56.869782 118.140948 
L 58.695647 117.643541 
L 60.521511 117.129461 
L 62.347375 116.595538 
L 64.173239 116.041125 
L 65.999104 115.464494 
L 67.824968 114.862019 
L 69.650832 114.232333 
L 71.476697 113.572523 
L 73.302561 112.883354 
L 75.128425 112.161188 
L 76.954289 111.405601 
L 78.780154 110.61386 
L 80.606018 109.785919 
L 82.431882 108.921055 
L 84.257746 108.018636 
L 86.083611 107.07439 
L 87.909475 106.088005 
L 89.735339 105.060097 
L 91.561204 103.989335 
L 93.387068 102.874012 
L 95.212932 101.714245 
L 97.038796 100.510118 
L 98.864661 99.260898 
L 100.690525 97.965822 
L 102.516389 96.624447 
L 104.342254 95.236158 
L 106.168118 93.805056 
L 107.993982 92.334888 
L 109.819846 90.830549 
L 111.645711 89.297027 
L 113.471575 87.734278 
L 115.297439 86.144342 
L 117.123303 84.52907 
L 118.949168 82.8934 
L 120.775032 81.23961 
L 122.600896 79.573797 
L 124.426761 77.89917 
L 126.252625 76.21694 
L 128.078489 74.533053 
L 129.904353 72.851832 
L 131.730218 71.177239 
L 133.556082 69.512053 
L 135.381946 67.862187 
L 137.20781 66.228512 
L 139.033675 64.615949 
L 140.859539 63.027227 
L 142.685403 61.465508 
L 144.511268 59.934366 
L 146.337132 58.438203 
L 148.162996 56.981744 
L 149.98886 55.568486 
L 151.814725 54.203608 
L 153.640589 52.892771 
L 155.466453 51.646055 
L 157.292318 50.488874 
L 159.118182 49.414322 
" clip-path="url(#pba6e558211)" style="fill: none; stroke-dasharray: 7.4,3.2; stroke-dashoffset: 0; stroke: #ff7f0e; stroke-width: 2"/>
   </g>
   <g id="line2d_16">
    <path d="M 29.481818 126.290322 
L 31.307682 127.229957 
L 33.133547 126.128414 
L 34.959411 126.013482 
L 36.785275 125.920445 
L 38.61114 125.161177 
L 40.437004 126.270671 
L 42.262868 125.10131 
L 44.088732 125.073692 
L 45.914597 123.629097 
L 47.740461 123.460979 
L 49.566325 123.35333 
L 51.39219 120.560742 
L 53.218054 120.159424 
L 55.043918 119.544273 
L 56.869782 119.293394 
L 58.695647 118.858351 
L 60.521511 116.015214 
L 62.347375 115.28683 
L 64.173239 116.027819 
L 65.999104 114.301173 
L 67.824968 112.878287 
L 69.650832 112.469672 
L 71.476697 113.422756 
L 73.302561 112.912708 
L 75.128425 111.84824 
L 76.954289 110.474276 
L 78.780154 109.757655 
L 80.606018 109.100297 
L 82.431882 108.226522 
L 84.257746 108.499855 
L 86.083611 106.477989 
L 87.909475 105.518898 
L 89.735339 105.316701 
L 91.561204 102.35127 
L 93.387068 101.371565 
L 95.212932 98.285632 
L 97.038796 97.517464 
L 98.864661 96.413981 
L 100.690525 94.689746 
L 102.516389 94.264974 
L 104.342254 92.693664 
L 106.168118 92.335388 
L 107.993982 91.186274 
L 109.819846 88.469057 
L 111.645711 86.580599 
L 113.471575 85.013489 
L 115.297439 83.283659 
L 117.123303 80.313229 
L 118.949168 77.836293 
L 120.775032 75.917341 
L 122.600896 72.712334 
L 124.426761 70.272919 
L 126.252625 67.710595 
L 128.078489 63.765625 
L 129.904353 58.913967 
L 131.730218 55.173588 
L 133.556082 53.134836 
L 135.381946 50.826661 
L 137.20781 46.841577 
L 139.033675 42.765137 
L 140.859539 42.677023 
L 142.685403 40.517163 
L 144.511268 36.915459 
L 146.337132 34.640437 
L 148.162996 33.157161 
L 149.98886 31.754694 
L 151.814725 29.064854 
L 153.640589 26.775257 
L 155.466453 26.840996 
L 157.292318 26.985318 
L 159.118182 26.29481 
" clip-path="url(#pba6e558211)" style="fill: none; stroke: #ff7f0e; stroke-opacity: 0.95; stroke-width: 2; stroke-linecap: square"/>
   </g>
   <g id="line2d_17">
    <path d="M 159.118182 137.95 
L 159.118182 18.6 
" clip-path="url(#pba6e558211)" style="fill: none; stroke: #000000; stroke-linecap: square"/>
   </g>
   <g id="patch_3">
    <path d="M 23 137.95 
L 23 18.6 
" style="fill: none; stroke: #000000; stroke-width: 0.8; stroke-linejoin: miter; stroke-linecap: square"/>
   </g>
   <g id="patch_4">
    <path d="M 23 137.95 
L 165.6 137.95 
" style="fill: none; stroke: #000000; stroke-width: 0.8; stroke-linejoin: miter; stroke-linecap: square"/>
   </g>
   <g id="text_10">
    <text style="fill: #daa520; font: 10px 'Helvetica'; text-anchor: start" x="37.26" y="37.708438" transform="rotate(-0 37.26 37.708438)">R² 0.958</text>
   </g>
   <g id="text_11">
    <text style="fill: #cc5500; font: 10px 'Helvetica'; text-anchor: start" x="37.26" y="47.256438" transform="rotate(-0 37.26 47.256438)">R² 0.966</text>
   </g>
  </g>
 </g>
 <defs>
  <clipPath id="pba6e558211">
   <rect x="23" y="18.6" width="142.6" height="119.35"/>
  </clipPath>
 </defs>
</svg>
