<?xml version="1.0" encoding="utf-8" standalone="no"?>
<!DOCTYPE svg PUBLIC "-//W3C//DTD SVG 1.1//EN"
  "http://www.w3.org/Graphics/SVG/1.1/DTD/svg11.dtd">
<svg xmlns:xlink="http://www.w3.org/1999/xlink" width="184pt" height="155pt" viewBox="0 0 184 155" xmlns="http://www.w3.org/2000/svg" version="1.1">
 <metadata>
  <rdf:RDF xmlns:dc="http://purl.org/dc/elements/1.1/" xmlns:cc="http://creativecommons.org/ns#" xmlns:rdf="http://www.w3.org/1999/02/22-rdf-syntax-ns#">
   <cc:Work>
    <dc:type rdf:resource="http://purl.org/dc/dcmitype/StillImage"/>
    <dc:date>2026-08-13T10:44:50.524324</dc:date>
    <dc:format>image/svg+xml</dc:format>
    <dc:creator>
     <cc:Agent>
      <dc:title>Matplotlib v3.9.2, https://matplotlib.org/</dc:title>
     </cc:Agent>
    </dc:creator>
   </cc:Work>
  </rdf:RDF>
 </metadata>
 <defs>
  <style type="text/css">*{stroke-linejoin: round; stroke-linecap: butt}</style>
 </defs>
 <g id="figure_1">
  <g id="patch_1">
   <path d="M 0 155 
L 184 155 
L 184 0 
L 0 0 
L 0 155 
z
" style="fill: none; opacity: 0"/>
  </g>
  <g id="axes_1">
   <g id="patch_2">
    <path d="M 23 137.95 
L 165.6 137.95 
L 165.6 18.6 
L 23 18.6 
L 23 137.95 
z
" style="fill: none"/>
   </g>
   <g id="matplotlib.axis_1">
    <g id="xtick_1">
     <g id="line2d_1">
      <defs>
       <path id="m4382744cd9" d="M 0 0 
L 0 3.5 
" style="stroke: #000000; stroke-width: 0.8"/>
      </defs>
      <g>
       <use xlink:href="#m4382744cd9" x="49.566325" y="137.95" style="stroke: #000000; stroke-width: 0.8"/>
      </g>
     </g>
     <g id="text_1">
      <text style="font: 12px 'Helvetica'; text-anchor: middle" x="49.566325" y="153.558125" transform="rotate(-0 49.566325 153.558125)">−120</text>
     </g>
    </g>
    <g id="xtick_2">
     <g id="line2d_2">
      <g>
       <use xlink:href="#m4382744cd9" x="86.083611" y="137.95" style="stroke: #000000; stroke-width: 0.8"/>
      </g>
     </g>
     <g id="text_2">
      <text style="font: 12px 'Helvetica'; text-anchor: middle" x="86.083611" y="153.558125" transform="rotate(-0 86.083611 153.558125)">−80</text>
     </g>
    </g>
    <g id="xtick_3">
     <g id="line2d_3">
      <g>
       <use xlink:href="#m4382744cd9" x="122.600896" y="137.95" style="stroke: #000000; stroke-width: 0.8"/>
      </g>
     </g>
     <g id="text_3">
      <text style="font: 12px 'Helvetica'; text-anchor: middle" x="122.600896" y="153.558125" transform="rotate(-0 122.600896 153.558125)">−40</text>
     </g>
    </g>
    <g id="xtick_4">
     <g id="line2d_4">
      <g>
       <use xlink:href="#m4382744cd9" x="159.118182" y="137.95" style="stroke: #000000; stroke-width: 0.8"/>
      </g>
     </g>
     <g id="text_4">
      <text style="font: 12px 'Helvetica'; text-anchor: middle" x="159.118182" y="153.558125" transform="rotate(-0 159.118182 153.558125)">0</text>
     </g>
    </g>
    <g id="text_5">
     <text style="font: 12px 'Helvetica'; text-anchor: middle" x="94.3" y="168.755625" transform="rotate(-0 94.3 168.755625)">time (ms)</text>
    </g>
   </g>
   <g id="matplotlib.axis_2">
    <g id="ytick_1">
     <g id="line2d_5">
      <defs>
       <path id="mc7dcb08fce" d="M 0 0 
L -3.5 0 
" style="stroke: #000000; stroke-width: 0.8"/>
      </defs>
      <g>
       <use xlink:href="#mc7dcb08fce" x="23" y="135.206328" style="stroke: #000000; stroke-width: 0.8"/>
      </g>
     </g>
     <g id="text_6">
      <text style="font: 12px 'Helvetica'; text-anchor: end" x="16" y="139.51039" transform="rotate(-0 16 139.51039)">0.00</text>
     </g>
    </g>
    <g id="ytick_2">
     <g id="line2d_6">
      <g>
       <use xlink:href="#mc7dcb08fce" x="23" y="100.594952" style="stroke: #000000; stroke-width: 0.8"/>
      </g>
     </g>
     <g id="text_7">
      <text style="font: 12px 'Helvetica'; text-anchor: end" x="16" y="104.899014" transform="rotate(-0 16 104.899014)">0.25</text>
     </g>
    </g>
    <g id="ytick_3">
     <g id="line2d_7">
      <g>
       <use xlink:href="#mc7dcb08fce" x="23" y="65.983576" style="stroke: #000000; stroke-width: 0.8"/>
      </g>
     </g>
     <g id="text_8">
      <text style="font: 12px 'Helvetica'; text-anchor: end" x="16" y="70.287638" transform="rotate(-0 16 70.287638)">0.50</text>
     </g>
    </g>
    <g id="ytick_4">
     <g id="line2d_8">
      <g>
       <use xlink:href="#mc7dcb08fce" x="23" y="31.3722" style="stroke: #000000; stroke-width: 0.8"/>
      </g>
     </g>
     <g id="text_9">
      <text style="font: 12px 'Helvetica'; text-anchor: end" x="16" y="35.676263" transform="rotate(-0 16 35.676263)">0.75</text>
     </g>
    </g>
   </g>
   <g id="line2d_9">
    <path d="M 29.481818 125.241148 
L 31.307682 124.960427 
L 33.133547 124.690024 
L 34.959411 124.404464 
L 36.785275 124.129711 
L 38.61114 123.844789 
L 40.437004 123.540625 
L 42.262868 123.229432 
L 44.088732 122.88948 
L 45.914597 122.539657 
L 47.740461 122.174731 
L 49.566325 121.823873 
L 51.39219 121.481232 
L 53.218054 121.127366 
L 55.043918 120.774655 
L 56.869782 120.385625 
L 58.695647 119.975048 
L 60.521511 119.597929 
L 62.347375 119.201753 
L 64.173239 118.756266 
L 65.999104 118.286141 
L 67.824968 117.777506 
L 69.650832 117.196098 
L 71.476697 116.588965 
L 73.302561 115.95031 
L 75.128425 115.344372 
L 76.954289 114.712365 
L 78.780154 114.04999 
L 80.606018 113.340233 
L 82.431882 112.599014 
L 84.257746 111.839501 
L 86.083611 111.037247 
L 87.909475 110.197173 
L 89.735339 109.348298 
L 91.561204 108.443343 
L 93.387068 107.520313 
L 95.212932 106.561239 
L 97.038796 105.581057 
L 98.864661 104.646451 
L 100.690525 103.684719 
L 102.516389 102.703379 
L 104.342254 101.739545 
L 106.168118 100.763362 
L 107.993982 99.777674 
L 109.819846 98.776724 
L 111.645711 97.732523 
L 113.471575 96.703161 
L 115.297439 95.707624 
L 117.123303 94.722705 
L 118.949168 93.771766 
L 120.775032 92.843618 
L 122.600896 91.985214 
L 124.426761 91.166148 
L 126.252625 90.34577 
L 128.078489 89.546164 
L 129.904353 88.780314 
L 131.730218 88.062674 
L 133.556082 87.387681 
L 135.381946 86.747911 
L 137.20781 86.166805 
L 139.033675 85.636829 
L 140.859539 85.150458 
L 142.685403 84.705865 
L 144.511268 84.315497 
L 146.337132 83.981442 
L 148.162996 83.713034 
L 149.98886 83.492925 
L 151.814725 83.352778 
L 153.640589 83.312649 
L 155.466453 83.398888 
L 157.292318 83.785525 
L 159.118182 84.102287 
" clip-path="url(#pf23ab36929)" style="fill: none; stroke-dasharray: 7.4,3.2; stroke-dashoffset: 0; stroke: #daa520; stroke-width: 2"/>
   </g>
   <g id="line2d_10">
    <path d="M 29.481818 132.525 
L 31.307682 131.833731 
L 33.133547 130.515703 
L 34.959411 130.049214 
L 36.785275 129.745299 
L 38.61114 130.280259 
L 40.437004 129.110032 
L 42.262868 128.053206 
L 44.088732 129.544022 
L 45.914597 128.919291 
L 47.740461 128.691804 
L 49.566325 127.814124 
L 51.39219 127.107234 
L 53.218054 127.48388 
L 55.043918 127.494359 
L 56.869782 125.940701 
L 58.695647 125.885882 
L 60.521511 125.58988 
L 62.347375 124.771513 
L 64.173239 124.755441 
L 65.999104 124.04744 
L 67.824968 124.020964 
L 69.650832 123.550299 
L 71.476697 122.985949 
L 73.302561 122.358351 
L 75.128425 122.342416 
L 76.954289 121.853416 
L 78.780154 122.275325 
L 80.606018 121.716815 
L 82.431882 121.267697 
L 84.257746 121.25371 
L 86.083611 119.897147 
L 87.909475 119.33465 
L 89.735339 117.341697 
L 91.561204 117.527543 
L 93.387068 116.386998 
L 95.212932 116.861806 
L 97.038796 115.749766 
L 98.864661 114.72366 
L 100.690525 114.603918 
L 102.516389 113.376503 
L 104.342254 112.314457 
L 106.168118 111.082404 
L 107.993982 110.918063 
L 109.819846 110.092156 
L 111.645711 109.291648 
L 113.471575 109.433438 
L 115.297439 108.178754 
L 117.123303 106.004967 
L 118.949168 104.501146 
L 120.775032 104.24765 
L 122.600896 102.404837 
L 124.426761 100.329512 
L 126.252625 99.482849 
L 128.078489 98.307777 
L 129.904353 96.431502 
L 131.730218 94.531174 
L 133.556082 92.241322 
L 135.381946 89.865638 
L 137.20781 89.012623 
L 139.033675 85.617489 
L 140.859539 83.777469 
L 142.685403 82.188778 
L 144.511268 81.236119 
L 146.337132 80.2054 
L 148.162996 78.528319 
L 149.98886 78.066963 
L 151.814725 79.087056 
L 153.640589 78.157256 
L 155.466453 76.826257 
L 157.292318 77.75117 
L 159.118182 77.551794 
" clip-path="url(#pf23ab36929)" style="fill: none; stroke: #daa520; stroke-opacity: 0.95; stroke-width: 2; stroke-linecap: square"/>
   </g>
   <g id="line2d_11">
    <path d="M 29.481818 126.530376 
L 31.307682 126.298411 
L 33.133547 126.05093 
L 34.959411 125.772127 
L 36.785275 125.46589 
L 38.61114 125.152287 
L 40.437004 124.874426 
L 42.262868 124.555897 
L 44.088732 124.243982 
L 45.914597 123.93815 
L 47.740461 123.609469 
L 49.566325 123.267266 
L 51.39219 122.913444 
L 53.218054 122.502215 
L 55.043918 122.09225 
L 56.869782 121.657838 
L 58.695647 121.200115 
L 60.521511 120.728208 
L 62.347375 120.202899 
L 64.173239 119.634981 
L 65.999104 119.05271 
L 67.824968 118.458388 
L 69.650832 117.857466 
L 71.476697 117.235881 
L 73.302561 116.586287 
L 75.128425 115.916009 
L 76.954289 115.221202 
L 78.780154 114.504234 
L 80.606018 113.772367 
L 82.431882 113.042174 
L 84.257746 112.263763 
L 86.083611 111.477128 
L 87.909475 110.681526 
L 89.735339 109.86684 
L 91.561204 109.009561 
L 93.387068 108.120951 
L 95.212932 107.216759 
L 97.038796 106.285021 
L 98.864661 105.318401 
L 100.690525 104.325055 
L 102.516389 103.311388 
L 104.342254 102.271144 
L 106.168118 101.25164 
L 107.993982 100.226683 
L 109.819846 99.216363 
L 111.645711 98.213347 
L 113.471575 97.235616 
L 115.297439 96.268716 
L 117.123303 95.320913 
L 118.949168 94.378044 
L 120.775032 93.447812 
L 122.600896 92.568164 
L 124.426761 91.715475 
L 126.252625 90.869569 
L 128.078489 90.065514 
L 129.904353 89.319222 
L 131.730218 88.6013 
L 133.556082 87.930239 
L 135.381946 87.304349 
L 137.20781 86.721809 
L 139.033675 86.208197 
L 140.859539 85.742791 
L 142.685403 85.310095 
L 144.511268 84.936812 
L 146.337132 84.624165 
L 148.162996 84.352467 
L 149.98886 84.146468 
L 151.814725 84.010433 
L 153.640589 83.989031 
L 155.466453 84.102661 
L 157.292318 84.51935 
L 159.118182 84.856235 
" clip-path="url(#pf23ab36929)" style="fill: none; stroke-dasharray: 7.4,3.2; stroke-dashoffset: 0; stroke: #ffd700; stroke-width: 2"/>
   </g>
   <g id="line2d_12">
    <path d="M 29.481818 132.523138 
L 31.307682 131.970846 
L 33.133547 131.131795 
L 34.959411 130.238165 
L 36.785275 130.787703 
L 38.61114 130.707286 
L 40.437004 129.553653 
L 42.262868 128.637508 
L 44.088732 128.992801 
L 45.914597 129.862208 
L 47.740461 128.221397 
L 49.566325 128.06873 
L 51.39219 127.243922 
L 53.218054 127.234805 
L 55.043918 125.10714 
L 56.869782 123.773829 
L 58.695647 125.06354 
L 60.521511 122.986189 
L 62.347375 123.03575 
L 64.173239 123.408962 
L 65.999104 123.421086 
L 67.824968 123.050601 
L 69.650832 121.77591 
L 71.476697 122.334257 
L 73.302561 122.843715 
L 75.128425 121.735162 
L 76.954289 121.685047 
L 78.780154 122.007216 
L 80.606018 122.035668 
L 82.431882 121.718336 
L 84.257746 120.184856 
L 86.083611 119.879276 
L 87.909475 118.804742 
L 89.735339 116.854803 
L 91.561204 116.014721 
L 93.387068 116.358064 
L 95.212932 115.077619 
L 97.038796 113.772657 
L 98.864661 113.452212 
L 100.690525 113.32332 
L 102.516389 112.640912 
L 104.342254 110.693266 
L 106.168118 110.430495 
L 107.993982 109.84616 
L 109.819846 109.116736 
L 111.645711 108.52171 
L 113.471575 107.492741 
L 115.297439 107.05106 
L 117.123303 107.516067 
L 118.949168 106.164978 
L 120.775032 104.358094 
L 122.600896 102.235201 
L 124.426761 101.622957 
L 126.252625 99.077976 
L 128.078489 95.577764 
L 129.904353 93.49805 
L 131.730218 91.96858 
L 133.556082 90.317164 
L 135.381946 87.301808 
L 137.20781 85.992455 
L 139.033675 83.975063 
L 140.859539 83.177064 
L 142.685403 81.659648 
L 144.511268 79.293994 
L 146.337132 79.056718 
L 148.162996 77.627863 
L 149.98886 77.281366 
L 151.814725 75.58835 
L 153.640589 75.503935 
L 155.466453 75.020859 
L 157.292318 74.497163 
L 159.118182 73.863371 
" clip-path="url(#pf23ab36929)" style="fill: none; stroke: #ffd700; stroke-opacity: 0.95; stroke-width: 2; stroke-linecap: square"/>
   </g>
   <g id="line2d_13">
    <path d="M 29.481818 122.012208 
L 31.307682 121.654443 
L 33.133547 121.287689 
L 34.959411 120.910919 
L 36.785275 120.525644 
L 38.61114 120.131292 
L 40.437004 119.726445 
L 42.262868 119.310928 
L 44.088732 118.882484 
L 45.914597 118.440778 
L 47.740461 117.984991 
L 49.566325 117.517141 
L 51.39219 117.03859 
L 53.218054 116.548768 
L 55.043918 116.04832 
L 56.869782 115.534263 
L 58.695647 115.005174 
L 60.521511 114.464979 
L 62.347375 113.912376 
L 64.173239 113.343216 
L 65.999104 112.755921 
L 67.824968 112.147653 
L 69.650832 111.512418 
L 71.476697 110.849027 
L 73.302561 110.155787 
L 75.128425 109.437258 
L 76.954289 108.692136 
L 78.780154 107.918767 
L 80.606018 107.113941 
L 82.431882 106.27613 
L 84.257746 105.405143 
L 86.083611 104.498449 
L 87.909475 103.554111 
L 89.735339 102.573071 
L 91.561204 101.551685 
L 93.387068 100.490131 
L 95.212932 99.386855 
L 97.038796 98.24181 
L 98.864661 97.061354 
L 100.690525 95.844564 
L 102.516389 94.59128 
L 104.342254 93.304916 
L 106.168118 91.985856 
L 107.993982 90.634738 
L 109.819846 89.251619 
L 111.645711 87.833864 
L 113.471575 86.384541 
L 115.297439 84.908396 
L 117.123303 83.407724 
L 118.949168 81.88695 
L 120.775032 80.349217 
L 122.600896 78.802028 
L 124.426761 77.249609 
L 126.252625 75.692083 
L 128.078489 74.131686 
L 129.904353 72.571797 
L 131.730218 71.01702 
L 133.556082 69.47121 
L 135.381946 67.937323 
L 137.20781 66.420426 
L 139.033675 64.924624 
L 140.859539 63.453103 
L 142.685403 62.008722 
L 144.511268 60.595401 
L 146.337132 59.217074 
L 148.162996 57.878384 
L 149.98886 56.582088 
L 151.814725 55.333853 
L 153.640589 54.141004 
L 155.466453 53.013046 
L 157.292318 51.975749 
L 159.118182 51.018099 
" clip-path="url(#pf23ab36929)" style="fill: none; stroke-dasharray: 7.4,3.2; stroke-dashoffset: 0; stroke: #cc5500; stroke-width: 2"/>
   </g>
   <g id="line2d_14">
    <path d="M 29.481818 126.832662 
L 31.307682 126.503063 
L 33.133547 126.520986 
L 34.959411 125.224945 
L 36.785275 126.017691 
L 38.61114 126.083956 
L 40.437004 124.151357 
L 42.262868 122.795823 
L 44.088732 122.122766 
L 45.914597 121.543175 
L 47.740461 119.826289 
L 49.566325 119.852624 
L 51.39219 119.393439 
L 53.218054 118.988597 
L 55.043918 117.708711 
L 56.869782 118.336353 
L 58.695647 117.589909 
L 60.521511 116.821644 
L 62.347375 116.172536 
L 64.173239 115.980529 
L 65.999104 115.923826 
L 67.824968 114.280225 
L 69.650832 114.231327 
L 71.476697 114.442341 
L 73.302561 113.49484 
L 75.128425 113.161758 
L 76.954289 112.04054 
L 78.780154 112.159724 
L 80.606018 110.984378 
L 82.431882 110.031641 
L 84.257746 108.661751 
L 86.083611 107.59194 
L 87.909475 106.159202 
L 89.735339 105.556952 
L 91.561204 103.094942 
L 93.387068 102.25727 
L 95.212932 100.93233 
L 97.038796 99.909499 
L 98.864661 99.006729 
L 100.690525 97.815408 
L 102.516389 96.917466 
L 104.342254 95.931601 
L 106.168118 93.815227 
L 107.993982 92.505475 
L 109.819846 90.724793 
L 111.645711 89.301155 
L 113.471575 89.379946 
L 115.297439 87.7395 
L 117.123303 85.461332 
L 118.949168 82.931206 
L 120.775032 81.633964 
L 122.600896 79.862572 
L 124.426761 77.373447 
L 126.252625 72.841394 
L 128.078489 69.219954 
L 129.904353 65.842338 
L 131.730218 62.078228 
L 133.556082 59.043351 
L 135.381946 54.722241 
L 137.20781 52.473012 
L 139.033675 47.74849 
L 140.859539 45.605897 
L 142.685403 41.750035 
L 144.511268 38.436494 
L 146.337132 37.367963 
L 148.162996 37.052584 
L 149.98886 35.372997 
L 151.814725 31.102465 
L 153.640589 31.310203 
L 155.466453 28.88926 
L 157.292318 27.188899 
L 159.118182 24.025 
" clip-path="url(#pf23ab36929)" style="fill: none; stroke: #cc5500; stroke-opacity: 0.95; stroke-width: 2; stroke-linecap: square"/>
   </g>
   <g id="line2d_15">
    <path d="M 29.481818 123.552282 
L 31.307682 123.249917 
L 33.133547 122.938136 
L 34.959411 122.614377 
L 36.785275 122.276575 
L 38.61114 121.924688 
L 40.437004 121.562818 
L 42.262868 121.187533 
L 44.088732 120.800104 
L 45.914597 120.401692 
L 47.740461 119.990624 
L 49.566325 119.566202 
L 51.39219 119.127945 
L 53.218054 118.670995 
L 55.043918 118.196361 
L 56.869782 117.702535 
L 58.695647 117.18819 
L 60.521511 116.652936 
L 62.347375 116.092638 
L 64.173239 115.504392 
L 65.999104 114.888146 
L 67.824968 114.244073 
L 69.650832 113.572859 
L 71.476697 112.873807 
L 73.302561 112.145549 
L 75.128425 111.387485 
L 76.954289 110.598673 
L 78.780154 109.778446 
L 80.606018 108.926862 
L 82.431882 108.045571 
L 84.257746 107.131352 
L 86.083611 106.184978 
L 87.909475 105.207114 
L 89.735339 104.197422 
L 91.561204 103.153322 
L 93.387068 102.073438 
L 95.212932 100.957972 
L 97.038796 99.805967 
L 98.864661 98.615808 
L 100.690525 97.386739 
L 102.516389 96.118655 
L 104.342254 94.810855 
L 106.168118 93.467216 
L 107.993982 92.088915 
L 109.819846 90.679003 
L 111.645711 89.239681 
L 113.471575 87.774773 
L 115.297439 86.286534 
L 117.123303 84.777904 
L 118.949168 83.250326 
L 120.775032 81.705912 
L 122.600896 80.150318 
L 124.426761 78.586665 
L 126.252625 77.015986 
L 128.078489 75.442633 
L 129.904353 73.872281 
L 131.730218 72.307512 
L 133.556082 70.75256 
L 135.381946 69.211298 
L 137.20781 67.687239 
L 139.033675 66.186186 
L 140.859539 64.711676 
L 142.685403 63.265591 
L 144.511268 61.852288 
L 146.337132 60.476033 
L 148.162996 59.139001 
L 149.98886 57.845639 
L 151.814725 56.600595 
L 153.640589 55.412582 
L 155.466453 54.291863 
L 157.292318 53.264346 
L 159.118182 52.317945 
" clip-path="url(#pf23ab36929)" style="fill: none; stroke-dasharray: 7.4,3.2; stroke-dashoffset: 0; stroke: #ff7f0e; stroke-width: 2"/>
   </g>
   <g id="line2d_16">
    <path d="M 29.481818 126.290322 
L 31.307682 127.229957 
L 33.133547 126.128414 
L 34.959411 126.013482 
L 36.785275 125.920445 
L 38.61114 125.161177 
L 40.437004 126.270671 
L 42.262868 125.10131 
L 44.088732 125.073692 
L 45.914597 123.629097 
L 47.740461 123.460979 
L 49.566325 123.35333 
L 51.39219 120.560742 
L 53.218054 120.159424 
L 55.043918 119.544273 
L 56.869782 119.293394 
L 58.695647 118.858351 
L 60.521511 116.015214 
L 62.347375 115.28683 
L 64.173239 116.027819 
L 65.999104 114.301173 
L 67.824968 112.878287 
L 69.650832 112.469672 
L 71.476697 113.422756 
L 73.302561 112.912708 
L 75.128425 111.84824 
L 76.954289 110.474276 
L 78.780154 109.757655 
L 80.606018 109.100297 
L 82.431882 108.226522 
L 84.257746 108.499855 
L 86.083611 106.477989 
L 87.909475 105.518898 
L 89.735339 105.316701 
L 91.561204 102.35127 
L 93.387068 101.371565 
L 95.212932 98.285632 
L 97.038796 97.517464 
L 98.864661 96.413981 
L 100.690525 94.689746 
L 102.516389 94.264974 
L 104.342254 92.693664 
L 106.168118 92.335388 
L 107.993982 91.186274 
L 109.819846 88.469057 
L 111.645711 86.580599 
L 113.471575 85.013489 
L 115.297439 83.283659 
L 117.123303 80.313229 
L 118.949168 77.836293 
L 120.775032 75.917341 
L 122.600896 72.712334 
L 124.426761 70.272919 
L 126.252625 67.710595 
L 128.078489 63.765625 
L 129.904353 58.913967 
L 131.730218 55.173588 
L 133.556082 53.134836 
L 135.381946 50.826661 
L 137.20781 46.841577 
L 139.033675 42.765137 
L 140.859539 42.677023 
L 142.685403 40.517163 
L 144.511268 36.915459 
L 146.337132 34.640437 
L 148.162996 33.157161 
L 149.98886 31.754694 
L 151.814725 29.064854 
L 153.640589 26.775257 
L 155.466453 26.840996 
L 157.292318 26.985318 
L 159.118182 26.29481 
" clip-path="url(#pf23ab36929)" style="fill: none; stroke: #ff7f0e; stroke-opacity: 0.95; stroke-width: 2; stroke-linecap: square"/>
   </g>
   <g id="line2d_17">
    <path d="M 159.118182 137.95 
L 159.118182 18.6 
" clip-path="url(#pf23ab36929)" style="fill: none; stroke: #000000; stroke-linecap: square"/>
   </g>
   <g id="patch_3">
    <path d="M 23 137.95 
L 23 18.6 
" style="fill: none; stroke: #000000; stroke-width: 0.8; stroke-linejoin: miter; stroke-linecap: square"/>
   </g>
   <g id="patch_4">
    <path d="M 23 137.95 
L 165.6 137.95 
" style="fill: none; stroke: #000000; stroke-width: 0.8; stroke-linejoin: miter; stroke-linecap: square"/>
   </g>
   <g id="text_10">
    <text style="fill: #daa520; font: 10px 'Helvetica'; text-anchor: start" x="37.26" y="37.708438" transform="rotate(-0 37.26 37.708438)">R² 0.941</text>
   </g>
   <g id="text_11">
    <text style="fill: #cc5500; font: 10px 'Helvetica'; text-anchor: start" x="37.26" y="47.256438" transform="rotate(-0 37.26 47.256438)">R² 0.960</text>
   </g>
  </g>
 </g>
 <defs>
  <clipPath id="pf23ab36929">
   <rect x="23" y="18.6" width="142.6" height="119.35"/>
  </clipPath>
 </defs>
</svg>
