<?xml version="1.0" encoding="utf-8" standalone="no"?>
<!DOCTYPE svg PUBLIC "-//W3C//DTD SVG 1.1//EN"
  "http://www.w3.org/Graphics/SVG/1.1/DTD/svg11.dtd">
<svg xmlns:xlink="http://www.w3.org/1999/xlink" width="184pt" height="155pt" viewBox="0 0 184 155" xmlns="http://www.w3.org/2000/svg" version="1.1">
 <metadata>
  <rdf:RDF xmlns:dc="http://purl.org/dc/elements/1.1/" xmlns:cc="http://creativecommons.org/ns#" xmlns:rdf="http://www.w3.org/1999/02/22-rdf-syntax-ns#">
   <cc:Work>
    <dc:type rdf:resource="http://purl.org/dc/dcmitype/StillImage"/>
    <dc:date>2026-08-13T10:44:53.076911</dc:date>
    <dc:format>image/svg+xml</dc:format>
    <dc:creator>
     <cc:Agent>
      <dc:title>Matplotlib v3.9.2, https://matplotlib.org/</dc:title>
     </cc:Agent>
    </dc:creator>
   </cc:Work>
  </rdf:RDF>
 </metadata>
 <defs>
  <style type="text/css">*{stroke-linejoin: round; stroke-linecap: butt}</style>
 </defs>
 <g id="figure_1">
  <g id="patch_1">
   <path d="M 0 155 
L 184 155 
L 184 0 
L 0 0 
L 0 155 
z
" style="fill: none; opacity: 0"/>
  </g>
  <g id="axes_1">
   <g id="patch_2">
    <path d="M 23 137.95 
L 165.6 137.95 
L 165.6 18.6 
L 23 18.6 
L 23 137.95 
z
" style="fill: none"/>
   </g>
   <g id="matplotlib.axis_1">
    <g id="xtick_1">
     <g id="line2d_1">
      <defs>
       <path id="ma641a04ebf" d="M 0 0 
L 0 3.5 
" style="stroke: #000000; stroke-width: 0.8"/>
      </defs>
      <g>
       <use xlink:href="#ma641a04ebf" x="29.481818" y="137.95" style="stroke: #000000; stroke-width: 0.8"/>
      </g>
     </g>
     <g id="text_1">
      <text style="font: 12px 'Helvetica'; text-anchor: middle" x="29.481818" y="153.558125" transform="rotate(-0 29.481818 153.558125)">0</text>
     </g>
    </g>
    <g id="xtick_2">
     <g id="line2d_2">
      <g>
       <use xlink:href="#ma641a04ebf" x="65.999104" y="137.95" style="stroke: #000000; stroke-width: 0.8"/>
      </g>
     </g>
     <g id="text_2">
      <text style="font: 12px 'Helvetica'; text-anchor: middle" x="65.999104" y="153.558125" transform="rotate(-0 65.999104 153.558125)">40</text>
     </g>
    </g>
    <g id="xtick_3">
     <g id="line2d_3">
      <g>
       <use xlink:href="#ma641a04ebf" x="102.516389" y="137.95" style="stroke: #000000; stroke-width: 0.8"/>
      </g>
     </g>
     <g id="text_3">
      <text style="font: 12px 'Helvetica'; text-anchor: middle" x="102.516389" y="153.558125" transform="rotate(-0 102.516389 153.558125)">80</text>
     </g>
    </g>
    <g id="xtick_4">
     <g id="line2d_4">
      <g>
       <use xlink:href="#ma641a04ebf" x="139.033675" y="137.95" style="stroke: #000000; stroke-width: 0.8"/>
      </g>
     </g>
     <g id="text_4">
      <text style="font: 12px 'Helvetica'; text-anchor: middle" x="139.033675" y="153.558125" transform="rotate(-0 139.033675 153.558125)">120</text>
     </g>
    </g>
    <g id="text_5">
     <text style="font: 12px 'Helvetica'; text-anchor: middle" x="94.3" y="168.755625" transform="rotate(-0 94.3 168.755625)">time (ms)</text>
    </g>
   </g>
   <g id="matplotlib.axis_2">
    <g id="ytick_1">
     <g id="line2d_5">
      <defs>
       <path id="mb9863980f9" d="M 0 0 
L -3.5 0 
" style="stroke: #000000; stroke-width: 0.8"/>
      </defs>
      <g>
       <use xlink:href="#mb9863980f9" x="23" y="132.525" style="stroke: #000000; stroke-width: 0.8"/>
      </g>
     </g>
     <g id="text_6">
      <text style="font: 12px 'Helvetica'; text-anchor: end" x="16" y="136.829062" transform="rotate(-0 16 136.829062)">0.00</text>
     </g>
    </g>
    <g id="ytick_2">
     <g id="line2d_6">
      <g>
       <use xlink:href="#mb9863980f9" x="23" y="101.360086" style="stroke: #000000; stroke-width: 0.8"/>
      </g>
     </g>
     <g id="text_7">
      <text style="font: 12px 'Helvetica'; text-anchor: end" x="16" y="105.664148" transform="rotate(-0 16 105.664148)">0.15</text>
     </g>
    </g>
    <g id="ytick_3">
     <g id="line2d_7">
      <g>
       <use xlink:href="#mb9863980f9" x="23" y="70.195172" style="stroke: #000000; stroke-width: 0.8"/>
      </g>
     </g>
     <g id="text_8">
      <text style="font: 12px 'Helvetica'; text-anchor: end" x="16" y="74.499234" transform="rotate(-0 16 74.499234)">0.30</text>
     </g>
    </g>
    <g id="ytick_4">
     <g id="line2d_8">
      <g>
       <use xlink:href="#mb9863980f9" x="23" y="39.030257" style="stroke: #000000; stroke-width: 0.8"/>
      </g>
     </g>
     <g id="text_9">
      <text style="font: 12px 'Helvetica'; text-anchor: end" x="16" y="43.33432" transform="rotate(-0 16 43.33432)">0.45</text>
     </g>
    </g>
   </g>
   <g id="line2d_9">
    <path d="M 29.481818 129.578462 
L 31.307682 129.532863 
L 33.133547 129.488107 
L 34.959411 129.44418 
L 36.785275 129.401069 
L 38.61114 129.358763 
L 40.437004 129.317247 
L 42.262868 129.27651 
L 44.088732 129.236537 
L 45.914597 129.197316 
L 47.740461 129.158834 
L 49.566325 129.121077 
L 51.39219 129.084034 
L 53.218054 129.047691 
L 55.043918 129.012035 
L 56.869782 128.774931 
L 58.695647 128.296729 
L 60.521511 127.590453 
L 62.347375 126.743799 
L 64.173239 125.760476 
L 65.999104 124.697026 
L 67.824968 123.577212 
L 69.650832 122.453703 
L 71.476697 121.312693 
L 73.302561 120.158983 
L 75.128425 118.954012 
L 76.954289 117.760594 
L 78.780154 116.452691 
L 80.606018 115.020344 
L 82.431882 113.565673 
L 84.257746 111.974227 
L 86.083611 110.204321 
L 87.909475 108.397653 
L 89.735339 106.436687 
L 91.561204 104.527253 
L 93.387068 102.78707 
L 95.212932 100.929577 
L 97.038796 99.105177 
L 98.864661 97.392316 
L 100.690525 95.753993 
L 102.516389 94.155341 
L 104.342254 92.682737 
L 106.168118 91.281027 
L 107.993982 89.962805 
L 109.819846 88.663646 
L 111.645711 87.470796 
L 113.471575 86.357945 
L 115.297439 85.339801 
L 117.123303 84.344656 
L 118.949168 83.402058 
L 120.775032 82.538196 
L 122.600896 81.717764 
L 124.426761 80.943875 
L 126.252625 80.183969 
L 128.078489 79.394188 
L 129.904353 78.64563 
L 131.730218 77.91971 
L 133.556082 77.287776 
L 135.381946 76.677522 
L 137.20781 76.142648 
L 139.033675 75.698176 
L 140.859539 75.308241 
L 142.685403 74.935587 
L 144.511268 74.581229 
L 146.337132 74.269429 
L 148.162996 74.044502 
L 149.98886 73.841501 
L 151.814725 73.66485 
L 153.640589 73.528157 
L 155.466453 73.40064 
L 157.292318 73.25935 
L 159.118182 73.182478 
" clip-path="url(#p3e84bbb4af)" style="fill: none; stroke-dasharray: 7.4,3.2; stroke-dashoffset: 0; stroke: #daa520; stroke-width: 2"/>
   </g>
   <g id="line2d_10">
    <path d="M 29.481818 132.525 
L 31.307682 126.118974 
L 33.133547 119.818468 
L 34.959411 109.651519 
L 36.785275 105.78941 
L 38.61114 102.555207 
L 40.437004 102.321157 
L 42.262868 103.952443 
L 44.088732 107.635753 
L 45.914597 110.259031 
L 47.740461 111.20934 
L 49.566325 112.140802 
L 51.39219 111.47921 
L 53.218054 115.392884 
L 55.043918 114.574369 
L 56.869782 114.130515 
L 58.695647 113.129997 
L 60.521511 113.505762 
L 62.347375 110.694696 
L 64.173239 109.209375 
L 65.999104 109.521591 
L 67.824968 109.250792 
L 69.650832 109.517238 
L 71.476697 107.124799 
L 73.302561 108.208824 
L 75.128425 105.36917 
L 76.954289 104.540508 
L 78.780154 103.317647 
L 80.606018 102.512172 
L 82.431882 101.641856 
L 84.257746 101.587441 
L 86.083611 100.989547 
L 87.909475 100.116761 
L 89.735339 99.202071 
L 91.561204 98.738192 
L 93.387068 98.299675 
L 95.212932 98.580352 
L 97.038796 96.025107 
L 98.864661 97.108442 
L 100.690525 96.244672 
L 102.516389 95.885857 
L 104.342254 92.868129 
L 106.168118 91.569762 
L 107.993982 94.586025 
L 109.819846 93.053181 
L 111.645711 93.803916 
L 113.471575 92.156787 
L 115.297439 94.10778 
L 117.123303 92.314508 
L 118.949168 91.361289 
L 120.775032 91.002627 
L 122.600896 88.284346 
L 124.426761 86.896066 
L 126.252625 84.218416 
L 128.078489 82.897516 
L 129.904353 80.953128 
L 131.730218 80.741842 
L 133.556082 81.887374 
L 135.381946 81.401804 
L 137.20781 81.828487 
L 139.033675 83.027522 
L 140.859539 82.006577 
L 142.685403 81.256226 
L 144.511268 79.148488 
L 146.337132 79.356042 
L 148.162996 78.857518 
L 149.98886 76.245637 
L 151.814725 77.110468 
L 153.640589 75.934912 
L 155.466453 74.500182 
L 157.292318 74.180983 
L 159.118182 73.826443 
" clip-path="url(#p3e84bbb4af)" style="fill: none; stroke: #daa520; stroke-opacity: 0.95; stroke-width: 2; stroke-linecap: square"/>
   </g>
   <g id="line2d_11">
    <path d="M 29.481818 128.683976 
L 31.307682 128.624532 
L 33.133547 128.566186 
L 34.959411 128.50892 
L 36.785275 128.45272 
L 38.61114 128.397567 
L 40.437004 128.343445 
L 42.262868 128.290338 
L 44.088732 128.238228 
L 45.914597 128.187097 
L 47.740461 128.13693 
L 49.566325 128.087709 
L 51.39219 128.039418 
L 53.218054 127.992039 
L 55.043918 127.945556 
L 56.869782 127.623641 
L 58.695647 127.043465 
L 60.521511 126.271168 
L 62.347375 125.27935 
L 64.173239 124.197802 
L 65.999104 123.090021 
L 67.824968 121.919719 
L 69.650832 120.757611 
L 71.476697 119.605477 
L 73.302561 118.446808 
L 75.128425 117.222663 
L 76.954289 115.976502 
L 78.780154 114.753969 
L 80.606018 113.287038 
L 82.431882 111.742478 
L 84.257746 110.127775 
L 86.083611 108.471574 
L 87.909475 106.868772 
L 89.735339 105.214986 
L 91.561204 103.532019 
L 93.387068 101.922603 
L 95.212932 100.34643 
L 97.038796 98.913374 
L 98.864661 97.52991 
L 100.690525 96.090858 
L 102.516389 94.709208 
L 104.342254 93.37997 
L 106.168118 92.148346 
L 107.993982 90.961543 
L 109.819846 89.812086 
L 111.645711 88.698733 
L 113.471575 87.652253 
L 115.297439 86.681867 
L 117.123303 85.768662 
L 118.949168 84.908004 
L 120.775032 84.104608 
L 122.600896 83.29945 
L 124.426761 82.562162 
L 126.252625 81.884912 
L 128.078489 81.258425 
L 129.904353 80.664467 
L 131.730218 80.10698 
L 133.556082 79.596702 
L 135.381946 79.108465 
L 137.20781 78.69655 
L 139.033675 78.314916 
L 140.859539 77.934003 
L 142.685403 77.569831 
L 144.511268 77.24005 
L 146.337132 76.909007 
L 148.162996 76.588389 
L 149.98886 76.323023 
L 151.814725 76.074611 
L 153.640589 75.844574 
L 155.466453 75.611752 
L 157.292318 75.359395 
L 159.118182 75.143177 
" clip-path="url(#p3e84bbb4af)" style="fill: none; stroke-dasharray: 7.4,3.2; stroke-dashoffset: 0; stroke: #ffd700; stroke-width: 2"/>
   </g>
   <g id="line2d_12">
    <path d="M 29.481818 132.525 
L 31.307682 127.562552 
L 33.133547 118.339108 
L 34.959411 109.561184 
L 36.785275 104.283238 
L 38.61114 103.77805 
L 40.437004 101.47707 
L 42.262868 103.401044 
L 44.088732 108.792319 
L 45.914597 112.175594 
L 47.740461 112.609251 
L 49.566325 111.506236 
L 51.39219 112.834429 
L 53.218054 112.369096 
L 55.043918 111.241435 
L 56.869782 110.584171 
L 58.695647 110.31796 
L 60.521511 110.338718 
L 62.347375 110.828914 
L 64.173239 110.138092 
L 65.999104 109.53744 
L 67.824968 107.741768 
L 69.650832 105.213878 
L 71.476697 106.342211 
L 73.302561 104.649539 
L 75.128425 103.092123 
L 76.954289 102.374323 
L 78.780154 100.982187 
L 80.606018 101.867256 
L 82.431882 100.548483 
L 84.257746 97.523299 
L 86.083611 97.038372 
L 87.909475 96.592996 
L 89.735339 96.947032 
L 91.561204 95.280681 
L 93.387068 94.06613 
L 95.212932 95.609539 
L 97.038796 95.282054 
L 98.864661 94.319609 
L 100.690525 94.57618 
L 102.516389 92.506083 
L 104.342254 92.142303 
L 106.168118 91.10265 
L 107.993982 92.416369 
L 109.819846 93.910975 
L 111.645711 93.444664 
L 113.471575 95.463293 
L 115.297439 94.420254 
L 117.123303 94.917257 
L 118.949168 92.983603 
L 120.775032 91.713198 
L 122.600896 91.869094 
L 124.426761 89.360343 
L 126.252625 89.984956 
L 128.078489 86.870367 
L 129.904353 86.767874 
L 131.730218 85.089989 
L 133.556082 82.839121 
L 135.381946 82.928586 
L 137.20781 81.356793 
L 139.033675 81.902885 
L 140.859539 80.973081 
L 142.685403 79.80784 
L 144.511268 79.091284 
L 146.337132 78.369731 
L 148.162996 77.345036 
L 149.98886 76.450902 
L 151.814725 74.860495 
L 153.640589 75.093692 
L 155.466453 74.522791 
L 157.292318 74.06444 
L 159.118182 73.515637 
" clip-path="url(#p3e84bbb4af)" style="fill: none; stroke: #ffd700; stroke-opacity: 0.95; stroke-width: 2; stroke-linecap: square"/>
   </g>
   <g id="line2d_13">
    <path d="M 29.481818 128.280815 
L 31.307682 128.161197 
L 33.133547 128.042161 
L 34.959411 127.923765 
L 36.785275 127.806064 
L 38.61114 127.689108 
L 40.437004 127.572945 
L 42.262868 127.457619 
L 44.088732 127.343172 
L 45.914597 127.229641 
L 47.740461 127.117061 
L 49.566325 127.005465 
L 51.39219 126.894882 
L 53.218054 126.785339 
L 55.043918 126.676862 
L 56.869782 126.549283 
L 58.695647 126.379325 
L 60.521511 126.145996 
L 62.347375 125.83795 
L 64.173239 125.444692 
L 65.999104 124.961817 
L 67.824968 124.38748 
L 69.650832 123.725175 
L 71.476697 122.97687 
L 73.302561 122.144928 
L 75.128425 121.227761 
L 76.954289 120.230124 
L 78.780154 119.143979 
L 80.606018 117.960635 
L 82.431882 116.681965 
L 84.257746 115.298336 
L 86.083611 113.796353 
L 87.909475 112.177344 
L 89.735339 110.430838 
L 91.561204 108.567368 
L 93.387068 106.608782 
L 95.212932 104.547378 
L 97.038796 102.390805 
L 98.864661 100.154225 
L 100.690525 97.848461 
L 102.516389 95.4804 
L 104.342254 93.065263 
L 106.168118 90.61212 
L 107.993982 88.130916 
L 109.819846 85.624741 
L 111.645711 83.105268 
L 113.471575 80.58105 
L 115.297439 78.061747 
L 117.123303 75.54945 
L 118.949168 73.049112 
L 120.775032 70.568092 
L 122.600896 68.109912 
L 124.426761 65.678258 
L 126.252625 63.273404 
L 128.078489 60.891236 
L 129.904353 58.534912 
L 131.730218 56.205603 
L 133.556082 53.911555 
L 135.381946 51.653444 
L 137.20781 49.437284 
L 139.033675 47.270331 
L 140.859539 45.155955 
L 142.685403 43.093662 
L 144.511268 41.083079 
L 146.337132 39.126273 
L 148.162996 37.22965 
L 149.98886 35.392859 
L 151.814725 33.616005 
L 153.640589 31.900547 
L 155.466453 30.244809 
L 157.292318 28.644892 
L 159.118182 27.104874 
" clip-path="url(#p3e84bbb4af)" style="fill: none; stroke-dasharray: 7.4,3.2; stroke-dashoffset: 0; stroke: #cc5500; stroke-width: 2"/>
   </g>
   <g id="line2d_14">
    <path d="M 29.481818 132.525 
L 31.307682 124.263215 
L 33.133547 114.405435 
L 34.959411 106.075043 
L 36.785275 99.763313 
L 38.61114 95.059892 
L 40.437004 88.331626 
L 42.262868 89.12402 
L 44.088732 92.613751 
L 45.914597 91.998582 
L 47.740461 91.297669 
L 49.566325 91.218275 
L 51.39219 93.364917 
L 53.218054 93.92815 
L 55.043918 92.12966 
L 56.869782 93.826172 
L 58.695647 93.063187 
L 60.521511 91.723615 
L 62.347375 91.715547 
L 64.173239 92.969978 
L 65.999104 93.554811 
L 67.824968 92.700718 
L 69.650832 92.091602 
L 71.476697 92.109967 
L 73.302561 88.954621 
L 75.128425 89.844613 
L 76.954289 89.123644 
L 78.780154 88.768436 
L 80.606018 87.173982 
L 82.431882 86.769495 
L 84.257746 86.083117 
L 86.083611 84.578605 
L 87.909475 85.601732 
L 89.735339 84.226596 
L 91.561204 85.120014 
L 93.387068 83.882904 
L 95.212932 81.505553 
L 97.038796 79.270608 
L 98.864661 77.046355 
L 100.690525 73.656174 
L 102.516389 74.459753 
L 104.342254 72.68988 
L 106.168118 73.563988 
L 107.993982 72.921929 
L 109.819846 70.359908 
L 111.645711 69.66665 
L 113.471575 64.774216 
L 115.297439 65.059424 
L 117.123303 60.437491 
L 118.949168 58.017991 
L 120.775032 54.2279 
L 122.600896 54.696559 
L 124.426761 54.035103 
L 126.252625 49.592648 
L 128.078489 51.504223 
L 129.904353 50.232049 
L 131.730218 49.821974 
L 133.556082 47.341889 
L 135.381946 45.348687 
L 137.20781 44.576458 
L 139.033675 41.126636 
L 140.859539 41.137518 
L 142.685403 39.786202 
L 144.511268 37.778541 
L 146.337132 37.722841 
L 148.162996 36.890186 
L 149.98886 32.417579 
L 151.814725 28.981713 
L 153.640589 28.83203 
L 155.466453 28.335486 
L 157.292318 26.851134 
L 159.118182 24.025 
" clip-path="url(#p3e84bbb4af)" style="fill: none; stroke: #cc5500; stroke-opacity: 0.95; stroke-width: 2; stroke-linecap: square"/>
   </g>
   <g id="line2d_15">
    <path d="M 29.481818 126.992675 
L 31.307682 126.836733 
L 33.133547 126.68155 
L 34.959411 126.5272 
L 36.785275 126.373757 
L 38.61114 126.221285 
L 40.437004 126.069847 
L 42.262868 125.919501 
L 44.088732 125.7703 
L 45.914597 125.622293 
L 47.740461 125.475527 
L 49.566325 125.330043 
L 51.39219 125.18588 
L 53.218054 125.043074 
L 55.043918 124.901656 
L 56.869782 124.734056 
L 58.695647 124.515581 
L 60.521511 124.22919 
L 62.347375 123.855824 
L 64.173239 123.390192 
L 65.999104 122.833572 
L 67.824968 122.183561 
L 69.650832 121.444923 
L 71.476697 120.622398 
L 73.302561 119.718876 
L 75.128425 118.731237 
L 76.954289 117.660836 
L 78.780154 116.513528 
L 80.606018 115.268149 
L 82.431882 113.921086 
L 84.257746 112.469629 
L 86.083611 110.914042 
L 87.909475 109.264056 
L 89.735339 107.518566 
L 91.561204 105.678692 
L 93.387068 103.755766 
L 95.212932 101.756617 
L 97.038796 99.698761 
L 98.864661 97.58963 
L 100.690525 95.425839 
L 102.516389 93.21543 
L 104.342254 90.965606 
L 106.168118 88.687785 
L 107.993982 86.387624 
L 109.819846 84.069798 
L 111.645711 81.738661 
L 113.471575 79.401453 
L 115.297439 77.066033 
L 117.123303 74.738036 
L 118.949168 72.422398 
L 120.775032 70.124317 
L 122.600896 67.842875 
L 124.426761 65.584149 
L 126.252625 63.353177 
L 128.078489 61.153857 
L 129.904353 58.988101 
L 131.730218 56.858135 
L 133.556082 54.767163 
L 135.381946 52.715739 
L 137.20781 50.709817 
L 139.033675 48.7505 
L 140.859539 46.835891 
L 142.685403 44.965774 
L 144.511268 43.141705 
L 146.337132 41.361613 
L 148.162996 39.624682 
L 149.98886 37.934608 
L 151.814725 36.291106 
L 153.640589 34.694043 
L 155.466453 33.14118 
L 157.292318 31.628699 
L 159.118182 30.158504 
" clip-path="url(#p3e84bbb4af)" style="fill: none; stroke-dasharray: 7.4,3.2; stroke-dashoffset: 0; stroke: #ff7f0e; stroke-width: 2"/>
   </g>
   <g id="line2d_16">
    <path d="M 29.481818 132.525 
L 31.307682 127.696239 
L 33.133547 119.386595 
L 34.959411 111.557943 
L 36.785275 103.476764 
L 38.61114 98.751984 
L 40.437004 91.263527 
L 42.262868 92.440528 
L 44.088732 93.752166 
L 45.914597 95.782589 
L 47.740461 95.955742 
L 49.566325 94.358255 
L 51.39219 96.443045 
L 53.218054 97.560281 
L 55.043918 99.19341 
L 56.869782 99.409542 
L 58.695647 98.917472 
L 60.521511 97.538264 
L 62.347375 95.963353 
L 64.173239 92.826899 
L 65.999104 92.531011 
L 67.824968 92.450438 
L 69.650832 91.776355 
L 71.476697 91.878611 
L 73.302561 89.657909 
L 75.128425 89.912446 
L 76.954289 89.443246 
L 78.780154 86.316487 
L 80.606018 84.852585 
L 82.431882 84.549963 
L 84.257746 87.419848 
L 86.083611 87.262729 
L 87.909475 85.78875 
L 89.735339 86.798467 
L 91.561204 87.179561 
L 93.387068 87.345693 
L 95.212932 84.793914 
L 97.038796 85.598383 
L 98.864661 84.036262 
L 100.690525 80.668564 
L 102.516389 78.91865 
L 104.342254 76.614724 
L 106.168118 74.809263 
L 107.993982 71.543617 
L 109.819846 70.912815 
L 111.645711 68.662734 
L 113.471575 65.768454 
L 115.297439 65.568564 
L 117.123303 62.851751 
L 118.949168 61.859161 
L 120.775032 60.09517 
L 122.600896 59.533089 
L 124.426761 59.566715 
L 126.252625 58.783111 
L 128.078489 56.688393 
L 129.904353 55.39748 
L 131.730218 54.607406 
L 133.556082 53.197653 
L 135.381946 50.646312 
L 137.20781 48.340357 
L 139.033675 48.230189 
L 140.859539 46.106353 
L 142.685403 45.954507 
L 144.511268 44.909562 
L 146.337132 44.35811 
L 148.162996 43.561503 
L 149.98886 41.606363 
L 151.814725 39.415052 
L 153.640589 38.810277 
L 155.466453 36.606233 
L 157.292318 36.657061 
L 159.118182 32.671105 
" clip-path="url(#p3e84bbb4af)" style="fill: none; stroke: #ff7f0e; stroke-opacity: 0.95; stroke-width: 2; stroke-linecap: square"/>
   </g>
   <g id="line2d_17">
    <path d="M 29.481818 137.95 
L 29.481818 18.6 
" clip-path="url(#p3e84bbb4af)" style="fill: none; stroke: #000000; stroke-linecap: square"/>
   </g>
   <g id="patch_3">
    <path d="M 23 137.95 
L 23 18.6 
" style="fill: none; stroke: #000000; stroke-width: 0.8; stroke-linejoin: miter; stroke-linecap: square"/>
   </g>
   <g id="patch_4">
    <path d="M 23 137.95 
L 165.6 137.95 
" style="fill: none; stroke: #000000; stroke-width: 0.8; stroke-linejoin: miter; stroke-linecap: square"/>
   </g>
   <g id="text_10">
    <text style="fill: #daa520; font: 10px 'Helvetica'; text-anchor: start" x="37.26" y="37.708438" transform="rotate(-0 37.26 37.708438)">R² 0.956</text>
   </g>
   <g id="text_11">
    <text style="fill: #cc5500; font: 10px 'Helvetica'; text-anchor: start" x="37.26" y="47.256438" transform="rotate(-0 37.26 47.256438)">R² 0.916</text>
   </g>
  </g>
 </g>
 <defs>
  <clipPath id="p3e84bbb4af">
   <rect x="23" y="18.6" width="142.6" height="119.35"/>
  </clipPath>
 </defs>
</svg>
