<?xml version="1.0" encoding="utf-8" standalone="no"?>
<!DOCTYPE svg PUBLIC "-//W3C//DTD SVG 1.1//EN"
  "http://www.w3.org/Graphics/SVG/1.1/DTD/svg11.dtd">
<svg xmlns:xlink="http://www.w3.org/1999/xlink" width="184pt" height="155pt" viewBox="0 0 184 155" xmlns="http://www.w3.org/2000/svg" version="1.1">
 <metadata>
  <rdf:RDF xmlns:dc="http://purl.org/dc/elements/1.1/" xmlns:cc="http://creativecommons.org/ns#" xmlns:rdf="http://www.w3.org/1999/02/22-rdf-syntax-ns#">
   <cc:Work>
    <dc:type rdf:resource="http://purl.org/dc/dcmitype/StillImage"/>
    <dc:date>2026-08-13T10:44:34.976561</dc:date>
    <dc:format>image/svg+xml</dc:format>
    <dc:creator>
     <cc:Agent>
      <dc:title>Matplotlib v3.9.2, https://matplotlib.org/</dc:title>
     </cc:Agent>
    </dc:creator>
   </cc:Work>
  </rdf:RDF>
 </metadata>
 <defs>
  <style type="text/css">*{stroke-linejoin: round; stroke-linecap: butt}</style>
 </defs>
 <g id="figure_1">
  <g id="patch_1">
   <path d="M 0 155 
L 184 155 
L 184 0 
L 0 0 
L 0 155 
z
" style="fill: none; opacity: 0"/>
  </g>
  <g id="axes_1">
   <g id="patch_2">
    <path d="M 23 137.95 
L 165.6 137.95 
L 165.6 18.6 
L 23 18.6 
L 23 137.95 
z
" style="fill: none"/>
   </g>
   <g id="matplotlib.axis_1">
    <g id="xtick_1">
     <g id="line2d_1">
      <defs>
       <path id="m0b1b9bcc81" d="M 0 0 
L 0 3.5 
" style="stroke: #000000; stroke-width: 0.8"/>
      </defs>
      <g>
       <use xlink:href="#m0b1b9bcc81" x="49.566325" y="137.95" style="stroke: #000000; stroke-width: 0.8"/>
      </g>
     </g>
     <g id="text_1">
      <text style="font: 12px 'Helvetica'; text-anchor: middle" x="49.566325" y="153.558125" transform="rotate(-0 49.566325 153.558125)">−120</text>
     </g>
    </g>
    <g id="xtick_2">
     <g id="line2d_2">
      <g>
       <use xlink:href="#m0b1b9bcc81" x="86.083611" y="137.95" style="stroke: #000000; stroke-width: 0.8"/>
      </g>
     </g>
     <g id="text_2">
      <text style="font: 12px 'Helvetica'; text-anchor: middle" x="86.083611" y="153.558125" transform="rotate(-0 86.083611 153.558125)">−80</text>
     </g>
    </g>
    <g id="xtick_3">
     <g id="line2d_3">
      <g>
       <use xlink:href="#m0b1b9bcc81" x="122.600896" y="137.95" style="stroke: #000000; stroke-width: 0.8"/>
      </g>
     </g>
     <g id="text_3">
      <text style="font: 12px 'Helvetica'; text-anchor: middle" x="122.600896" y="153.558125" transform="rotate(-0 122.600896 153.558125)">−40</text>
     </g>
    </g>
    <g id="xtick_4">
     <g id="line2d_4">
      <g>
       <use xlink:href="#m0b1b9bcc81" x="159.118182" y="137.95" style="stroke: #000000; stroke-width: 0.8"/>
      </g>
     </g>
     <g id="text_4">
      <text style="font: 12px 'Helvetica'; text-anchor: middle" x="159.118182" y="153.558125" transform="rotate(-0 159.118182 153.558125)">0</text>
     </g>
    </g>
    <g id="text_5">
     <text style="font: 12px 'Helvetica'; text-anchor: middle" x="94.3" y="168.755625" transform="rotate(-0 94.3 168.755625)">time (ms)</text>
    </g>
   </g>
   <g id="matplotlib.axis_2">
    <g id="ytick_1">
     <g id="line2d_5">
      <defs>
       <path id="mc09c82952c" d="M 0 0 
L -3.5 0 
" style="stroke: #000000; stroke-width: 0.8"/>
      </defs>
      <g>
       <use xlink:href="#mc09c82952c" x="23" y="135.206328" style="stroke: #000000; stroke-width: 0.8"/>
      </g>
     </g>
     <g id="text_6">
      <text style="font: 12px 'Helvetica'; text-anchor: end" x="16" y="139.51039" transform="rotate(-0 16 139.51039)">0.00</text>
     </g>
    </g>
    <g id="ytick_2">
     <g id="line2d_6">
      <g>
       <use xlink:href="#mc09c82952c" x="23" y="100.594952" style="stroke: #000000; stroke-width: 0.8"/>
      </g>
     </g>
     <g id="text_7">
      <text style="font: 12px 'Helvetica'; text-anchor: end" x="16" y="104.899014" transform="rotate(-0 16 104.899014)">0.25</text>
     </g>
    </g>
    <g id="ytick_3">
     <g id="line2d_7">
      <g>
       <use xlink:href="#mc09c82952c" x="23" y="65.983576" style="stroke: #000000; stroke-width: 0.8"/>
      </g>
     </g>
     <g id="text_8">
      <text style="font: 12px 'Helvetica'; text-anchor: end" x="16" y="70.287638" transform="rotate(-0 16 70.287638)">0.50</text>
     </g>
    </g>
    <g id="ytick_4">
     <g id="line2d_8">
      <g>
       <use xlink:href="#mc09c82952c" x="23" y="31.3722" style="stroke: #000000; stroke-width: 0.8"/>
      </g>
     </g>
     <g id="text_9">
      <text style="font: 12px 'Helvetica'; text-anchor: end" x="16" y="35.676263" transform="rotate(-0 16 35.676263)">0.75</text>
     </g>
    </g>
   </g>
   <g id="line2d_9">
    <path d="M 29.481818 128.586809 
L 31.307682 128.380703 
L 33.133547 128.169896 
L 34.959411 127.935271 
L 36.785275 127.698469 
L 38.61114 127.448735 
L 40.437004 127.234076 
L 42.262868 127.012986 
L 44.088732 126.76372 
L 45.914597 126.499168 
L 47.740461 126.231969 
L 49.566325 125.996445 
L 51.39219 125.774787 
L 53.218054 125.564314 
L 55.043918 125.350353 
L 56.869782 125.114469 
L 58.695647 124.860384 
L 60.521511 124.582804 
L 62.347375 124.321449 
L 64.173239 124.003014 
L 65.999104 123.681559 
L 67.824968 123.304908 
L 69.650832 122.932478 
L 71.476697 122.536245 
L 73.302561 122.077471 
L 75.128425 121.618448 
L 76.954289 121.131758 
L 78.780154 120.615292 
L 80.606018 120.033042 
L 82.431882 119.428452 
L 84.257746 118.781329 
L 86.083611 118.106553 
L 87.909475 117.391473 
L 89.735339 116.583022 
L 91.561204 115.756637 
L 93.387068 114.87928 
L 95.212932 113.965354 
L 97.038796 112.927943 
L 98.864661 111.904668 
L 100.690525 110.816149 
L 102.516389 109.698709 
L 104.342254 108.518516 
L 106.168118 107.28931 
L 107.993982 105.995874 
L 109.819846 104.710731 
L 111.645711 103.355881 
L 113.471575 101.956818 
L 115.297439 100.580264 
L 117.123303 99.188777 
L 118.949168 97.814993 
L 120.775032 96.461509 
L 122.600896 95.147317 
L 124.426761 93.851133 
L 126.252625 92.567195 
L 128.078489 91.343013 
L 129.904353 90.185932 
L 131.730218 89.10651 
L 133.556082 88.13578 
L 135.381946 87.227975 
L 137.20781 86.416156 
L 139.033675 85.707892 
L 140.859539 85.078728 
L 142.685403 84.53204 
L 144.511268 84.065597 
L 146.337132 83.671616 
L 148.162996 83.364882 
L 149.98886 83.134544 
L 151.814725 82.990216 
L 153.640589 82.970937 
L 155.466453 83.081426 
L 157.292318 83.513988 
L 159.118182 83.91071 
" clip-path="url(#pb57683dae7)" style="fill: none; stroke-dasharray: 7.4,3.2; stroke-dashoffset: 0; stroke: #daa520; stroke-width: 2"/>
   </g>
   <g id="line2d_10">
    <path d="M 29.481818 132.525 
L 31.307682 131.833731 
L 33.133547 130.515703 
L 34.959411 130.049214 
L 36.785275 129.745299 
L 38.61114 130.280259 
L 40.437004 129.110032 
L 42.262868 128.053206 
L 44.088732 129.544022 
L 45.914597 128.919291 
L 47.740461 128.691804 
L 49.566325 127.814124 
L 51.39219 127.107234 
L 53.218054 127.48388 
L 55.043918 127.494359 
L 56.869782 125.940701 
L 58.695647 125.885882 
L 60.521511 125.58988 
L 62.347375 124.771513 
L 64.173239 124.755441 
L 65.999104 124.04744 
L 67.824968 124.020964 
L 69.650832 123.550299 
L 71.476697 122.985949 
L 73.302561 122.358351 
L 75.128425 122.342416 
L 76.954289 121.853416 
L 78.780154 122.275325 
L 80.606018 121.716815 
L 82.431882 121.267697 
L 84.257746 121.25371 
L 86.083611 119.897147 
L 87.909475 119.33465 
L 89.735339 117.341697 
L 91.561204 117.527543 
L 93.387068 116.386998 
L 95.212932 116.861806 
L 97.038796 115.749766 
L 98.864661 114.72366 
L 100.690525 114.603918 
L 102.516389 113.376503 
L 104.342254 112.314457 
L 106.168118 111.082404 
L 107.993982 110.918063 
L 109.819846 110.092156 
L 111.645711 109.291648 
L 113.471575 109.433438 
L 115.297439 108.178754 
L 117.123303 106.004967 
L 118.949168 104.501146 
L 120.775032 104.24765 
L 122.600896 102.404837 
L 124.426761 100.329512 
L 126.252625 99.482849 
L 128.078489 98.307777 
L 129.904353 96.431502 
L 131.730218 94.531174 
L 133.556082 92.241322 
L 135.381946 89.865638 
L 137.20781 89.012623 
L 139.033675 85.617489 
L 140.859539 83.777469 
L 142.685403 82.188778 
L 144.511268 81.236119 
L 146.337132 80.2054 
L 148.162996 78.528319 
L 149.98886 78.066963 
L 151.814725 79.087056 
L 153.640589 78.157256 
L 155.466453 76.826257 
L 157.292318 77.75117 
L 159.118182 77.551794 
" clip-path="url(#pb57683dae7)" style="fill: none; stroke: #daa520; stroke-opacity: 0.95; stroke-width: 2; stroke-linecap: square"/>
   </g>
   <g id="line2d_11">
    <path d="M 29.481818 128.411724 
L 31.307682 128.22453 
L 33.133547 128.020381 
L 34.959411 127.825971 
L 36.785275 127.610954 
L 38.61114 127.373937 
L 40.437004 127.149252 
L 42.262868 126.906958 
L 44.088732 126.66219 
L 45.914597 126.421101 
L 47.740461 126.171731 
L 49.566325 125.925538 
L 51.39219 125.651598 
L 53.218054 125.332096 
L 55.043918 125.053532 
L 56.869782 124.785258 
L 58.695647 124.489486 
L 60.521511 124.190069 
L 62.347375 123.854321 
L 64.173239 123.486738 
L 65.999104 123.134419 
L 67.824968 122.746627 
L 69.650832 122.315375 
L 71.476697 121.861633 
L 73.302561 121.403236 
L 75.128425 120.915277 
L 76.954289 120.410939 
L 78.780154 119.866014 
L 80.606018 119.290577 
L 82.431882 118.713599 
L 84.257746 118.112401 
L 86.083611 117.488628 
L 87.909475 116.823628 
L 89.735339 116.085223 
L 91.561204 115.274625 
L 93.387068 114.433442 
L 95.212932 113.590818 
L 97.038796 112.746584 
L 98.864661 111.811003 
L 100.690525 110.821087 
L 102.516389 109.745569 
L 104.342254 108.535213 
L 106.168118 107.293074 
L 107.993982 106.029965 
L 109.819846 104.762538 
L 111.645711 103.473283 
L 113.471575 102.146646 
L 115.297439 100.736386 
L 117.123303 99.290091 
L 118.949168 97.880041 
L 120.775032 96.470142 
L 122.600896 95.113167 
L 124.426761 93.796665 
L 126.252625 92.512395 
L 128.078489 91.294176 
L 129.904353 90.161226 
L 131.730218 89.091956 
L 133.556082 88.106702 
L 135.381946 87.210247 
L 137.20781 86.378508 
L 139.033675 85.648901 
L 140.859539 84.995962 
L 142.685403 84.417139 
L 144.511268 83.925404 
L 146.337132 83.49988 
L 148.162996 83.16657 
L 149.98886 82.898278 
L 151.814725 82.732326 
L 153.640589 82.677995 
L 155.466453 82.797644 
L 157.292318 83.256385 
L 159.118182 83.644194 
" clip-path="url(#pb57683dae7)" style="fill: none; stroke-dasharray: 7.4,3.2; stroke-dashoffset: 0; stroke: #ffd700; stroke-width: 2"/>
   </g>
   <g id="line2d_12">
    <path d="M 29.481818 132.523138 
L 31.307682 131.970846 
L 33.133547 131.131795 
L 34.959411 130.238165 
L 36.785275 130.787703 
L 38.61114 130.707286 
L 40.437004 129.553653 
L 42.262868 128.637508 
L 44.088732 128.992801 
L 45.914597 129.862208 
L 47.740461 128.221397 
L 49.566325 128.06873 
L 51.39219 127.243922 
L 53.218054 127.234805 
L 55.043918 125.10714 
L 56.869782 123.773829 
L 58.695647 125.06354 
L 60.521511 122.986189 
L 62.347375 123.03575 
L 64.173239 123.408962 
L 65.999104 123.421086 
L 67.824968 123.050601 
L 69.650832 121.77591 
L 71.476697 122.334257 
L 73.302561 122.843715 
L 75.128425 121.735162 
L 76.954289 121.685047 
L 78.780154 122.007216 
L 80.606018 122.035668 
L 82.431882 121.718336 
L 84.257746 120.184856 
L 86.083611 119.879276 
L 87.909475 118.804742 
L 89.735339 116.854803 
L 91.561204 116.014721 
L 93.387068 116.358064 
L 95.212932 115.077619 
L 97.038796 113.772657 
L 98.864661 113.452212 
L 100.690525 113.32332 
L 102.516389 112.640912 
L 104.342254 110.693266 
L 106.168118 110.430495 
L 107.993982 109.84616 
L 109.819846 109.116736 
L 111.645711 108.52171 
L 113.471575 107.492741 
L 115.297439 107.05106 
L 117.123303 107.516067 
L 118.949168 106.164978 
L 120.775032 104.358094 
L 122.600896 102.235201 
L 124.426761 101.622957 
L 126.252625 99.077976 
L 128.078489 95.577764 
L 129.904353 93.49805 
L 131.730218 91.96858 
L 133.556082 90.317164 
L 135.381946 87.301808 
L 137.20781 85.992455 
L 139.033675 83.975063 
L 140.859539 83.177064 
L 142.685403 81.659648 
L 144.511268 79.293994 
L 146.337132 79.056718 
L 148.162996 77.627863 
L 149.98886 77.281366 
L 151.814725 75.58835 
L 153.640589 75.503935 
L 155.466453 75.020859 
L 157.292318 74.497163 
L 159.118182 73.863371 
" clip-path="url(#pb57683dae7)" style="fill: none; stroke: #ffd700; stroke-opacity: 0.95; stroke-width: 2; stroke-linecap: square"/>
   </g>
   <g id="line2d_13">
    <path d="M 29.481818 125.095214 
L 31.307682 124.847569 
L 33.133547 124.589185 
L 34.959411 124.318026 
L 36.785275 124.034468 
L 38.61114 123.737719 
L 40.437004 123.432167 
L 42.262868 123.117544 
L 44.088732 122.791265 
L 45.914597 122.452251 
L 47.740461 122.100827 
L 49.566325 121.740978 
L 51.39219 121.374594 
L 53.218054 121.003183 
L 55.043918 120.626614 
L 56.869782 120.242783 
L 58.695647 119.85009 
L 60.521511 119.446442 
L 62.347375 119.034099 
L 64.173239 118.607365 
L 65.999104 118.166604 
L 67.824968 117.706574 
L 69.650832 117.22865 
L 71.476697 116.731136 
L 73.302561 116.208273 
L 75.128425 115.661244 
L 76.954289 115.088241 
L 78.780154 114.487318 
L 80.606018 113.852764 
L 82.431882 113.183794 
L 84.257746 112.477498 
L 86.083611 111.732698 
L 87.909475 110.946919 
L 89.735339 110.11212 
L 91.561204 109.228723 
L 93.387068 108.293593 
L 95.212932 107.305286 
L 97.038796 106.253119 
L 98.864661 105.141658 
L 100.690525 103.966752 
L 102.516389 102.728336 
L 104.342254 101.422724 
L 106.168118 100.047881 
L 107.993982 98.600236 
L 109.819846 97.084159 
L 111.645711 95.495455 
L 113.471575 93.832862 
L 115.297439 92.102321 
L 117.123303 90.305484 
L 118.949168 88.447414 
L 120.775032 86.533215 
L 122.600896 84.569777 
L 124.426761 82.561383 
L 126.252625 80.511495 
L 128.078489 78.428495 
L 129.904353 76.321154 
L 131.730218 74.198954 
L 133.556082 72.074245 
L 135.381946 69.953886 
L 137.20781 67.847952 
L 139.033675 65.766842 
L 140.859539 63.717842 
L 142.685403 61.70825 
L 144.511268 59.744776 
L 146.337132 57.832978 
L 148.162996 55.979727 
L 149.98886 54.190408 
L 151.814725 52.471176 
L 153.640589 50.832074 
L 155.466453 49.283168 
L 157.292318 47.854643 
L 159.118182 46.536903 
" clip-path="url(#pb57683dae7)" style="fill: none; stroke-dasharray: 7.4,3.2; stroke-dashoffset: 0; stroke: #cc5500; stroke-width: 2"/>
   </g>
   <g id="line2d_14">
    <path d="M 29.481818 126.832662 
L 31.307682 126.503063 
L 33.133547 126.520986 
L 34.959411 125.224945 
L 36.785275 126.017691 
L 38.61114 126.083956 
L 40.437004 124.151357 
L 42.262868 122.795823 
L 44.088732 122.122766 
L 45.914597 121.543175 
L 47.740461 119.826289 
L 49.566325 119.852624 
L 51.39219 119.393439 
L 53.218054 118.988597 
L 55.043918 117.708711 
L 56.869782 118.336353 
L 58.695647 117.589909 
L 60.521511 116.821644 
L 62.347375 116.172536 
L 64.173239 115.980529 
L 65.999104 115.923826 
L 67.824968 114.280225 
L 69.650832 114.231327 
L 71.476697 114.442341 
L 73.302561 113.49484 
L 75.128425 113.161758 
L 76.954289 112.04054 
L 78.780154 112.159724 
L 80.606018 110.984378 
L 82.431882 110.031641 
L 84.257746 108.661751 
L 86.083611 107.59194 
L 87.909475 106.159202 
L 89.735339 105.556952 
L 91.561204 103.094942 
L 93.387068 102.25727 
L 95.212932 100.93233 
L 97.038796 99.909499 
L 98.864661 99.006729 
L 100.690525 97.815408 
L 102.516389 96.917466 
L 104.342254 95.931601 
L 106.168118 93.815227 
L 107.993982 92.505475 
L 109.819846 90.724793 
L 111.645711 89.301155 
L 113.471575 89.379946 
L 115.297439 87.7395 
L 117.123303 85.461332 
L 118.949168 82.931206 
L 120.775032 81.633964 
L 122.600896 79.862572 
L 124.426761 77.373447 
L 126.252625 72.841394 
L 128.078489 69.219954 
L 129.904353 65.842338 
L 131.730218 62.078228 
L 133.556082 59.043351 
L 135.381946 54.722241 
L 137.20781 52.473012 
L 139.033675 47.74849 
L 140.859539 45.605897 
L 142.685403 41.750035 
L 144.511268 38.436494 
L 146.337132 37.367963 
L 148.162996 37.052584 
L 149.98886 35.372997 
L 151.814725 31.102465 
L 153.640589 31.310203 
L 155.466453 28.88926 
L 157.292318 27.188899 
L 159.118182 24.025 
" clip-path="url(#pb57683dae7)" style="fill: none; stroke: #cc5500; stroke-opacity: 0.95; stroke-width: 2; stroke-linecap: square"/>
   </g>
   <g id="line2d_15">
    <path d="M 29.481818 124.261446 
L 31.307682 124.036936 
L 33.133547 123.801294 
L 34.959411 123.556096 
L 36.785275 123.299592 
L 38.61114 123.029966 
L 40.437004 122.749166 
L 42.262868 122.45584 
L 44.088732 122.150322 
L 45.914597 121.833589 
L 47.740461 121.505291 
L 49.566325 121.16632 
L 51.39219 120.814215 
L 53.218054 120.444725 
L 55.043918 120.063064 
L 56.869782 119.670917 
L 58.695647 119.26584 
L 60.521511 118.84806 
L 62.347375 118.414295 
L 64.173239 117.961898 
L 65.999104 117.493395 
L 67.824968 117.005757 
L 69.650832 116.495244 
L 71.476697 115.960541 
L 73.302561 115.402306 
L 75.128425 114.818497 
L 76.954289 114.208584 
L 78.780154 113.569467 
L 80.606018 112.899274 
L 82.431882 112.199326 
L 84.257746 111.468451 
L 86.083611 110.705711 
L 87.909475 109.908213 
L 89.735339 109.069757 
L 91.561204 108.18457 
L 93.387068 107.251608 
L 95.212932 106.273003 
L 97.038796 105.250764 
L 98.864661 104.177194 
L 100.690525 103.048926 
L 102.516389 101.859409 
L 104.342254 100.597128 
L 106.168118 99.262158 
L 107.993982 97.855729 
L 109.819846 96.380794 
L 111.645711 94.838292 
L 113.471575 93.227447 
L 115.297439 91.542572 
L 117.123303 89.783346 
L 118.949168 87.957206 
L 120.775032 86.067368 
L 122.600896 84.122544 
L 124.426761 82.129698 
L 126.252625 80.094579 
L 128.078489 78.026281 
L 129.904353 75.935523 
L 131.730218 73.8302 
L 133.556082 71.720007 
L 135.381946 69.614685 
L 137.20781 67.520935 
L 139.033675 65.449141 
L 140.859539 63.406466 
L 142.685403 61.399454 
L 144.511268 59.435729 
L 146.337132 57.520311 
L 148.162996 55.660769 
L 149.98886 53.861395 
L 151.814725 52.130272 
L 153.640589 50.476093 
L 155.466453 48.913812 
L 157.292318 47.475355 
L 159.118182 46.147204 
" clip-path="url(#pb57683dae7)" style="fill: none; stroke-dasharray: 7.4,3.2; stroke-dashoffset: 0; stroke: #ff7f0e; stroke-width: 2"/>
   </g>
   <g id="line2d_16">
    <path d="M 29.481818 126.290322 
L 31.307682 127.229957 
L 33.133547 126.128414 
L 34.959411 126.013482 
L 36.785275 125.920445 
L 38.61114 125.161177 
L 40.437004 126.270671 
L 42.262868 125.10131 
L 44.088732 125.073692 
L 45.914597 123.629097 
L 47.740461 123.460979 
L 49.566325 123.35333 
L 51.39219 120.560742 
L 53.218054 120.159424 
L 55.043918 119.544273 
L 56.869782 119.293394 
L 58.695647 118.858351 
L 60.521511 116.015214 
L 62.347375 115.28683 
L 64.173239 116.027819 
L 65.999104 114.301173 
L 67.824968 112.878287 
L 69.650832 112.469672 
L 71.476697 113.422756 
L 73.302561 112.912708 
L 75.128425 111.84824 
L 76.954289 110.474276 
L 78.780154 109.757655 
L 80.606018 109.100297 
L 82.431882 108.226522 
L 84.257746 108.499855 
L 86.083611 106.477989 
L 87.909475 105.518898 
L 89.735339 105.316701 
L 91.561204 102.35127 
L 93.387068 101.371565 
L 95.212932 98.285632 
L 97.038796 97.517464 
L 98.864661 96.413981 
L 100.690525 94.689746 
L 102.516389 94.264974 
L 104.342254 92.693664 
L 106.168118 92.335388 
L 107.993982 91.186274 
L 109.819846 88.469057 
L 111.645711 86.580599 
L 113.471575 85.013489 
L 115.297439 83.283659 
L 117.123303 80.313229 
L 118.949168 77.836293 
L 120.775032 75.917341 
L 122.600896 72.712334 
L 124.426761 70.272919 
L 126.252625 67.710595 
L 128.078489 63.765625 
L 129.904353 58.913967 
L 131.730218 55.173588 
L 133.556082 53.134836 
L 135.381946 50.826661 
L 137.20781 46.841577 
L 139.033675 42.765137 
L 140.859539 42.677023 
L 142.685403 40.517163 
L 144.511268 36.915459 
L 146.337132 34.640437 
L 148.162996 33.157161 
L 149.98886 31.754694 
L 151.814725 29.064854 
L 153.640589 26.775257 
L 155.466453 26.840996 
L 157.292318 26.985318 
L 159.118182 26.29481 
" clip-path="url(#pb57683dae7)" style="fill: none; stroke: #ff7f0e; stroke-opacity: 0.95; stroke-width: 2; stroke-linecap: square"/>
   </g>
   <g id="line2d_17">
    <path d="M 159.118182 137.95 
L 159.118182 18.6 
" clip-path="url(#pb57683dae7)" style="fill: none; stroke: #000000; stroke-linecap: square"/>
   </g>
   <g id="patch_3">
    <path d="M 23 137.95 
L 23 18.6 
" style="fill: none; stroke: #000000; stroke-width: 0.8; stroke-linejoin: miter; stroke-linecap: square"/>
   </g>
   <g id="patch_4">
    <path d="M 23 137.95 
L 165.6 137.95 
" style="fill: none; stroke: #000000; stroke-width: 0.8; stroke-linejoin: miter; stroke-linecap: square"/>
   </g>
   <g id="text_10">
    <text style="fill: #daa520; font: 10px 'Helvetica'; text-anchor: start" x="37.26" y="37.708438" transform="rotate(-0 37.26 37.708438)">R² 0.983</text>
   </g>
   <g id="text_11">
    <text style="fill: #cc5500; font: 10px 'Helvetica'; text-anchor: start" x="37.26" y="47.256438" transform="rotate(-0 37.26 47.256438)">R² 0.962</text>
   </g>
  </g>
 </g>
 <defs>
  <clipPath id="pb57683dae7">
   <rect x="23" y="18.6" width="142.6" height="119.35"/>
  </clipPath>
 </defs>
</svg>
