<?xml version="1.0" encoding="utf-8" standalone="no"?>
<!DOCTYPE svg PUBLIC "-//W3C//DTD SVG 1.1//EN"
  "http://www.w3.org/Graphics/SVG/1.1/DTD/svg11.dtd">
<svg xmlns:xlink="http://www.w3.org/1999/xlink" width="184pt" height="155pt" viewBox="0 0 184 155" xmlns="http://www.w3.org/2000/svg" version="1.1">
 <metadata>
  <rdf:RDF xmlns:dc="http://purl.org/dc/elements/1.1/" xmlns:cc="http://creativecommons.org/ns#" xmlns:rdf="http://www.w3.org/1999/02/22-rdf-syntax-ns#">
   <cc:Work>
    <dc:type rdf:resource="http://purl.org/dc/dcmitype/StillImage"/>
    <dc:date>2026-08-12T22:45:55.147825</dc:date>
    <dc:format>image/svg+xml</dc:format>
    <dc:creator>
     <cc:Agent>
      <dc:title>Matplotlib v3.9.2, https://matplotlib.org/</dc:title>
     </cc:Agent>
    </dc:creator>
   </cc:Work>
  </rdf:RDF>
 </metadata>
 <defs>
  <style type="text/css">*{stroke-linejoin: round; stroke-linecap: butt}</style>
 </defs>
 <g id="figure_1">
  <g id="patch_1">
   <path d="M 0 155 
L 184 155 
L 184 0 
L 0 0 
L 0 155 
z
" style="fill: none; opacity: 0"/>
  </g>
  <g id="axes_1">
   <g id="patch_2">
    <path d="M 23 137.95 
L 165.6 137.95 
L 165.6 18.6 
L 23 18.6 
L 23 137.95 
z
" style="fill: none"/>
   </g>
   <g id="matplotlib.axis_1">
    <g id="xtick_1">
     <g id="line2d_1">
      <defs>
       <path id="mc309f90d4a" d="M 0 0 
L 0 3.5 
" style="stroke: #000000; stroke-width: 0.8"/>
      </defs>
      <g>
       <use xlink:href="#mc309f90d4a" x="29.481818" y="137.95" style="stroke: #000000; stroke-width: 0.8"/>
      </g>
     </g>
     <g id="text_1">
      <text style="font: 12px 'Helvetica'; text-anchor: middle" x="29.481818" y="153.558125" transform="rotate(-0 29.481818 153.558125)">0</text>
     </g>
    </g>
    <g id="xtick_2">
     <g id="line2d_2">
      <g>
       <use xlink:href="#mc309f90d4a" x="65.999104" y="137.95" style="stroke: #000000; stroke-width: 0.8"/>
      </g>
     </g>
     <g id="text_2">
      <text style="font: 12px 'Helvetica'; text-anchor: middle" x="65.999104" y="153.558125" transform="rotate(-0 65.999104 153.558125)">40</text>
     </g>
    </g>
    <g id="xtick_3">
     <g id="line2d_3">
      <g>
       <use xlink:href="#mc309f90d4a" x="102.516389" y="137.95" style="stroke: #000000; stroke-width: 0.8"/>
      </g>
     </g>
     <g id="text_3">
      <text style="font: 12px 'Helvetica'; text-anchor: middle" x="102.516389" y="153.558125" transform="rotate(-0 102.516389 153.558125)">80</text>
     </g>
    </g>
    <g id="xtick_4">
     <g id="line2d_4">
      <g>
       <use xlink:href="#mc309f90d4a" x="139.033675" y="137.95" style="stroke: #000000; stroke-width: 0.8"/>
      </g>
     </g>
     <g id="text_4">
      <text style="font: 12px 'Helvetica'; text-anchor: middle" x="139.033675" y="153.558125" transform="rotate(-0 139.033675 153.558125)">120</text>
     </g>
    </g>
    <g id="text_5">
     <text style="font: 12px 'Helvetica'; text-anchor: middle" x="94.3" y="168.755625" transform="rotate(-0 94.3 168.755625)">time (ms)</text>
    </g>
   </g>
   <g id="matplotlib.axis_2">
    <g id="ytick_1">
     <g id="line2d_5">
      <defs>
       <path id="m99dfa0f295" d="M 0 0 
L -3.5 0 
" style="stroke: #000000; stroke-width: 0.8"/>
      </defs>
      <g>
       <use xlink:href="#m99dfa0f295" x="23" y="132.525" style="stroke: #000000; stroke-width: 0.8"/>
      </g>
     </g>
     <g id="text_6">
      <text style="font: 12px 'Helvetica'; text-anchor: end" x="16" y="136.829062" transform="rotate(-0 16 136.829062)">0.0</text>
     </g>
    </g>
    <g id="ytick_2">
     <g id="line2d_6">
      <g>
       <use xlink:href="#m99dfa0f295" x="23" y="93.600987" style="stroke: #000000; stroke-width: 0.8"/>
      </g>
     </g>
     <g id="text_7">
      <text style="font: 12px 'Helvetica'; text-anchor: end" x="16" y="97.905049" transform="rotate(-0 16 97.905049)">0.2</text>
     </g>
    </g>
    <g id="ytick_3">
     <g id="line2d_7">
      <g>
       <use xlink:href="#m99dfa0f295" x="23" y="54.676974" style="stroke: #000000; stroke-width: 0.8"/>
      </g>
     </g>
     <g id="text_8">
      <text style="font: 12px 'Helvetica'; text-anchor: end" x="16" y="58.981036" transform="rotate(-0 16 58.981036)">0.4</text>
     </g>
    </g>
   </g>
   <g id="line2d_8">
    <path d="M 29.481818 128.547621 
L 31.307682 128.49772 
L 33.133547 128.448592 
L 34.959411 128.400225 
L 36.785275 128.352607 
L 38.61114 128.305725 
L 40.437004 128.25957 
L 42.262868 128.214127 
L 44.088732 128.169388 
L 45.914597 128.12534 
L 47.740461 128.081973 
L 49.566325 128.039275 
L 51.39219 127.811087 
L 53.218054 127.362762 
L 55.043918 126.6842 
L 56.869782 125.871678 
L 58.695647 124.934545 
L 60.521511 123.909312 
L 62.347375 122.829671 
L 64.173239 121.743016 
L 65.999104 120.632635 
L 67.824968 119.505572 
L 69.650832 118.422322 
L 71.476697 117.279181 
L 73.302561 116.095315 
L 75.128425 114.82563 
L 76.954289 113.478707 
L 78.780154 112.120131 
L 80.606018 110.692027 
L 82.431882 109.228751 
L 84.257746 107.76705 
L 86.083611 106.22953 
L 87.909475 104.649997 
L 89.735339 103.106096 
L 91.561204 101.495896 
L 93.387068 99.893917 
L 95.212932 98.219356 
L 97.038796 96.499634 
L 98.864661 94.852079 
L 100.690525 93.304079 
L 102.516389 91.87072 
L 104.342254 90.487357 
L 106.168118 89.168364 
L 107.993982 87.886109 
L 109.819846 86.658704 
L 111.645711 85.458295 
L 113.471575 84.310417 
L 115.297439 83.257004 
L 117.123303 82.209473 
L 118.949168 81.202066 
L 120.775032 80.253668 
L 122.600896 79.366762 
L 124.426761 78.47059 
L 126.252625 77.575186 
L 128.078489 76.705231 
L 129.904353 75.865093 
L 131.730218 75.064678 
L 133.556082 74.309372 
L 135.381946 73.600418 
L 137.20781 72.879348 
L 139.033675 72.282286 
L 140.859539 71.763416 
L 142.685403 71.296707 
L 144.511268 70.865161 
L 146.337132 70.428471 
L 148.162996 70.045602 
L 149.98886 69.74041 
L 151.814725 69.443381 
L 153.640589 69.204866 
L 155.466453 69.02081 
L 157.292318 68.860724 
L 159.118182 68.736511 
" clip-path="url(#p43ab3c906e)" style="fill: none; stroke-dasharray: 7.4,3.2; stroke-dashoffset: 0; stroke: #daa520; stroke-width: 2"/>
   </g>
   <g id="line2d_9">
    <path d="M 29.481818 132.525 
L 31.307682 126.524304 
L 33.133547 120.622452 
L 34.959411 111.098797 
L 36.785275 107.481057 
L 38.61114 104.451492 
L 40.437004 104.232251 
L 42.262868 105.760321 
L 44.088732 109.210575 
L 45.914597 111.66787 
L 47.740461 112.558051 
L 49.566325 113.430575 
L 51.39219 112.810845 
L 53.218054 116.476889 
L 55.043918 115.710163 
L 56.869782 115.294393 
L 58.695647 114.357181 
L 60.521511 114.70917 
L 62.347375 112.07597 
L 64.173239 110.68463 
L 65.999104 110.97709 
L 67.824968 110.723426 
L 69.650832 110.973013 
L 71.476697 108.731951 
L 73.302561 109.747387 
L 75.128425 107.087407 
L 76.954289 106.311177 
L 78.780154 105.16569 
L 80.606018 104.41118 
L 82.431882 103.595931 
L 84.257746 103.54496 
L 86.083611 102.984896 
L 87.909475 102.167334 
L 89.735339 101.31052 
L 91.561204 100.875992 
L 93.387068 100.465221 
L 95.212932 100.728139 
L 97.038796 98.334572 
L 98.864661 99.349361 
L 100.690525 98.540245 
L 102.516389 98.204134 
L 104.342254 95.377347 
L 106.168118 94.161132 
L 107.993982 96.986546 
L 109.819846 95.55069 
L 111.645711 96.253923 
L 113.471575 94.711014 
L 115.297439 96.538561 
L 117.123303 94.858755 
L 118.949168 93.965849 
L 120.775032 93.629881 
L 122.600896 91.083595 
L 124.426761 89.783156 
L 126.252625 87.274929 
L 128.078489 86.037606 
L 129.904353 84.216246 
L 131.730218 84.018329 
L 133.556082 85.09138 
L 135.381946 84.636533 
L 137.20781 85.036218 
L 139.033675 86.159386 
L 140.859539 85.20304 
L 142.685403 84.500166 
L 144.511268 82.525791 
L 146.337132 82.720213 
L 148.162996 82.253232 
L 149.98886 79.806613 
L 151.814725 80.616724 
L 153.640589 79.515549 
L 155.466453 78.171599 
L 157.292318 77.872597 
L 159.118182 77.54049 
" clip-path="url(#p43ab3c906e)" style="fill: none; stroke: #daa520; stroke-opacity: 0.95; stroke-width: 2; stroke-linecap: square"/>
   </g>
   <g id="line2d_10">
    <path d="M 29.481818 127.897831 
L 31.307682 127.839778 
L 33.133547 127.782624 
L 34.959411 127.726356 
L 36.785275 127.670959 
L 38.61114 127.616419 
L 40.437004 127.562724 
L 42.262868 127.509858 
L 44.088732 127.45781 
L 45.914597 127.406567 
L 47.740461 127.356115 
L 49.566325 127.306443 
L 51.39219 127.002873 
L 53.218054 126.446085 
L 55.043918 125.701122 
L 56.869782 124.724433 
L 58.695647 123.652485 
L 60.521511 122.5432 
L 62.347375 121.363346 
L 64.173239 120.178902 
L 65.999104 118.99774 
L 67.824968 117.803329 
L 69.650832 116.636793 
L 71.476697 115.423265 
L 73.302561 114.150849 
L 75.128425 112.890635 
L 76.954289 111.574101 
L 78.780154 110.292387 
L 80.606018 108.846207 
L 82.431882 107.341239 
L 84.257746 105.849475 
L 86.083611 104.2821 
L 87.909475 102.825824 
L 89.735339 101.364291 
L 91.561204 99.906204 
L 93.387068 98.451906 
L 95.212932 96.96344 
L 97.038796 95.482087 
L 98.864661 94.068391 
L 100.690525 92.646346 
L 102.516389 91.21461 
L 104.342254 89.857554 
L 106.168118 88.534229 
L 107.993982 87.271643 
L 109.819846 86.059118 
L 111.645711 84.960262 
L 113.471575 83.901362 
L 115.297439 82.955997 
L 117.123303 81.97965 
L 118.949168 81.0243 
L 120.775032 80.111706 
L 122.600896 79.252589 
L 124.426761 78.42439 
L 126.252625 77.665677 
L 128.078489 76.979406 
L 129.904353 76.32303 
L 131.730218 75.708019 
L 133.556082 75.088103 
L 135.381946 74.543889 
L 137.20781 74.04115 
L 139.033675 73.578441 
L 140.859539 73.125878 
L 142.685403 72.652369 
L 144.511268 72.228763 
L 146.337132 71.846756 
L 148.162996 71.471447 
L 149.98886 71.125153 
L 151.814725 70.748988 
L 153.640589 70.4171 
L 155.466453 70.094373 
L 157.292318 69.79943 
L 159.118182 69.520737 
" clip-path="url(#p43ab3c906e)" style="fill: none; stroke-dasharray: 7.4,3.2; stroke-dashoffset: 0; stroke: #ffd700; stroke-width: 2"/>
   </g>
   <g id="line2d_11">
    <path d="M 29.481818 132.525 
L 31.307682 127.876542 
L 33.133547 119.236695 
L 34.959411 111.014178 
L 36.785275 106.070185 
L 38.61114 105.596962 
L 40.437004 103.441573 
L 42.262868 105.24381 
L 44.088732 110.293962 
L 45.914597 113.463166 
L 47.740461 113.869384 
L 49.566325 112.836161 
L 51.39219 114.080315 
L 53.218054 113.644425 
L 55.043918 112.588114 
L 56.869782 111.972437 
L 58.695647 111.723071 
L 60.521511 111.742515 
L 62.347375 112.201695 
L 64.173239 111.554583 
L 65.999104 110.991937 
L 67.824968 109.309883 
L 69.650832 106.94194 
L 71.476697 107.99888 
L 73.302561 106.413309 
L 75.128425 104.954435 
L 76.954289 104.282053 
L 78.780154 102.978003 
L 80.606018 103.80707 
L 82.431882 102.57174 
L 84.257746 99.737969 
L 86.083611 99.283725 
L 87.909475 98.866529 
L 89.735339 99.198165 
L 91.561204 97.637249 
L 93.387068 96.499546 
L 95.212932 97.945299 
L 97.038796 97.638535 
L 98.864661 96.736987 
L 100.690525 96.977324 
L 102.516389 95.038208 
L 104.342254 94.697447 
L 106.168118 93.723575 
L 107.993982 94.954171 
L 109.819846 96.354208 
L 111.645711 95.917403 
L 113.471575 97.808306 
L 115.297439 96.831264 
L 117.123303 97.29682 
L 118.949168 95.485515 
L 120.775032 94.295492 
L 122.600896 94.441524 
L 124.426761 92.09151 
L 126.252625 92.676601 
L 128.078489 89.759082 
L 129.904353 89.663075 
L 131.730218 88.091355 
L 133.556082 85.982906 
L 135.381946 86.066711 
L 137.20781 84.59437 
L 139.033675 85.105909 
L 140.859539 84.234937 
L 142.685403 83.143425 
L 144.511268 82.472207 
L 146.337132 81.796309 
L 148.162996 80.836449 
L 149.98886 79.998891 
L 151.814725 78.509114 
L 153.640589 78.727555 
L 155.466453 78.192777 
L 157.292318 77.763428 
L 159.118182 77.249349 
" clip-path="url(#p43ab3c906e)" style="fill: none; stroke: #ffd700; stroke-opacity: 0.95; stroke-width: 2; stroke-linecap: square"/>
   </g>
   <g id="line2d_12">
    <path d="M 29.481818 126.516897 
L 31.307682 126.385756 
L 33.133547 126.255682 
L 34.959411 126.126702 
L 36.785275 125.998842 
L 38.61114 125.872125 
L 40.437004 125.746571 
L 42.262868 125.622201 
L 44.088732 125.499029 
L 45.914597 125.377071 
L 47.740461 125.25634 
L 49.566325 125.136848 
L 51.39219 124.999742 
L 53.218054 124.82353 
L 55.043918 124.586685 
L 56.869782 124.27843 
L 58.695647 123.88943 
L 60.521511 123.414479 
L 62.347375 122.852026 
L 64.173239 122.205394 
L 65.999104 121.476058 
L 67.824968 120.66614 
L 69.650832 119.783794 
L 71.476697 118.826288 
L 73.302561 117.792962 
L 75.128425 116.678614 
L 76.954289 115.479152 
L 78.780154 114.197318 
L 80.606018 112.829865 
L 82.431882 111.377175 
L 84.257746 109.843336 
L 86.083611 108.224406 
L 87.909475 106.520051 
L 89.735339 104.737816 
L 91.561204 102.874575 
L 93.387068 100.934894 
L 95.212932 98.914942 
L 97.038796 96.813843 
L 98.864661 94.642649 
L 100.690525 92.414678 
L 102.516389 90.144163 
L 104.342254 87.838129 
L 106.168118 85.504737 
L 107.993982 83.14897 
L 109.819846 80.777417 
L 111.645711 78.393539 
L 113.471575 76.003229 
L 115.297439 73.616354 
L 117.123303 71.233352 
L 118.949168 68.858109 
L 120.775032 66.496247 
L 122.600896 64.15338 
L 124.426761 61.827694 
L 126.252625 59.518474 
L 128.078489 57.22754 
L 129.904353 54.95707 
L 131.730218 52.710147 
L 133.556082 50.490254 
L 135.381946 48.300844 
L 137.20781 46.139283 
L 139.033675 44.016853 
L 140.859539 41.939673 
L 142.685403 39.910942 
L 144.511268 37.93199 
L 146.337132 36.000002 
L 148.162996 34.118266 
L 149.98886 32.292337 
L 151.814725 30.520469 
L 153.640589 28.8061 
L 155.466453 27.152098 
L 157.292318 25.558108 
L 159.118182 24.025 
" clip-path="url(#p43ab3c906e)" style="fill: none; stroke-dasharray: 7.4,3.2; stroke-dashoffset: 0; stroke: #cc5500; stroke-width: 2"/>
   </g>
   <g id="line2d_13">
    <path d="M 29.481818 132.525 
L 31.307682 124.785964 
L 33.133547 115.551918 
L 34.959411 107.748617 
L 36.785275 101.83625 
L 38.61114 97.43043 
L 40.437004 91.127882 
L 42.262868 91.87014 
L 44.088732 95.139064 
L 45.914597 94.562819 
L 47.740461 93.906255 
L 49.566325 93.831884 
L 51.39219 95.842702 
L 53.218054 96.370297 
L 55.043918 94.685603 
L 56.869782 96.274771 
L 58.695647 95.560063 
L 60.521511 94.30525 
L 62.347375 94.297692 
L 64.173239 95.472751 
L 65.999104 96.020581 
L 67.824968 95.220528 
L 69.650832 94.649953 
L 71.476697 94.667156 
L 73.302561 91.711459 
L 75.128425 92.545138 
L 76.954289 91.869787 
L 78.780154 91.537054 
L 80.606018 90.043486 
L 82.431882 89.664593 
L 84.257746 89.021644 
L 86.083611 87.612328 
L 87.909475 88.570718 
L 89.735339 87.282591 
L 91.561204 88.11948 
L 93.387068 86.960646 
L 95.212932 84.733718 
L 97.038796 82.640185 
L 98.864661 80.556667 
L 100.690525 77.380994 
L 102.516389 78.133728 
L 104.342254 76.475841 
L 106.168118 77.294641 
L 107.993982 76.693207 
L 109.819846 74.293293 
L 111.645711 73.6439 
L 113.471575 69.061026 
L 115.297439 69.328188 
L 117.123303 64.9987 
L 118.949168 62.732289 
L 120.775032 59.182009 
L 122.600896 59.621015 
L 124.426761 59.001411 
L 126.252625 54.840044 
L 128.078489 56.630668 
L 129.904353 55.438989 
L 131.730218 55.05486 
L 133.556082 52.731698 
L 135.381946 50.864612 
L 137.20781 50.141245 
L 139.033675 46.909705 
L 140.859539 46.919898 
L 142.685403 45.654084 
L 144.511268 43.773454 
L 146.337132 43.721278 
L 148.162996 42.941308 
L 149.98886 38.751697 
L 151.814725 35.53323 
L 153.640589 35.393018 
L 155.466453 34.927891 
L 157.292318 33.537459 
L 159.118182 30.890144 
" clip-path="url(#p43ab3c906e)" style="fill: none; stroke: #cc5500; stroke-opacity: 0.95; stroke-width: 2; stroke-linecap: square"/>
   </g>
   <g id="line2d_14">
    <path d="M 29.481818 125.535298 
L 31.307682 125.382734 
L 33.133547 125.231412 
L 34.959411 125.081362 
L 36.785275 124.932616 
L 38.61114 124.785199 
L 40.437004 124.639136 
L 42.262868 124.494448 
L 44.088732 124.351156 
L 45.914597 124.209275 
L 47.740461 124.068822 
L 49.566325 123.92981 
L 51.39219 123.766446 
L 53.218054 123.554197 
L 55.043918 123.276248 
L 56.869782 122.912149 
L 58.695647 122.456218 
L 60.521511 121.908906 
L 62.347375 121.267273 
L 64.173239 120.535202 
L 65.999104 119.717193 
L 67.824968 118.815866 
L 69.650832 117.837884 
L 71.476697 116.782019 
L 73.302561 115.645895 
L 75.128425 114.434446 
L 76.954289 113.145438 
L 78.780154 111.785974 
L 80.606018 110.342636 
L 82.431882 108.813335 
L 84.257746 107.20337 
L 86.083611 105.508797 
L 87.909475 103.744774 
L 89.735339 101.913968 
L 91.561204 100.019807 
L 93.387068 98.065594 
L 95.212932 96.050636 
L 97.038796 93.978452 
L 98.864661 91.858536 
L 100.690525 89.692242 
L 102.516389 87.480725 
L 104.342254 85.233637 
L 106.168118 82.956034 
L 107.993982 80.655477 
L 109.819846 78.338098 
L 111.645711 76.016187 
L 113.471575 73.694003 
L 115.297439 71.383061 
L 117.123303 69.079706 
L 118.949168 66.785713 
L 120.775032 64.504984 
L 122.600896 62.242327 
L 124.426761 60.00004 
L 126.252625 57.784226 
L 128.078489 55.601004 
L 129.904353 53.451901 
L 131.730218 51.339536 
L 133.556082 49.261719 
L 135.381946 47.224527 
L 137.20781 45.230291 
L 139.033675 43.281087 
L 140.859539 41.375867 
L 142.685403 39.510481 
L 144.511268 37.688151 
L 146.337132 35.911106 
L 148.162996 34.177938 
L 149.98886 32.489564 
L 151.814725 30.840894 
L 153.640589 29.234584 
L 155.466453 27.669609 
L 157.292318 26.146879 
L 159.118182 24.666095 
" clip-path="url(#p43ab3c906e)" style="fill: none; stroke-dasharray: 7.4,3.2; stroke-dashoffset: 0; stroke: #ff7f0e; stroke-width: 2"/>
   </g>
   <g id="line2d_15">
    <path d="M 29.481818 132.525 
L 31.307682 128.00177 
L 33.133547 120.217904 
L 34.959411 112.884596 
L 36.785275 105.314739 
L 38.61114 100.888912 
L 40.437004 93.874273 
L 42.262868 94.976802 
L 44.088732 96.205448 
L 45.914597 98.1074 
L 47.740461 98.269597 
L 49.566325 96.773188 
L 51.39219 98.726067 
L 53.218054 99.772611 
L 55.043918 101.302407 
L 56.869782 101.504863 
L 58.695647 101.043929 
L 60.521511 99.751987 
L 62.347375 98.276726 
L 64.173239 95.338725 
L 65.999104 95.061559 
L 67.824968 94.986084 
L 69.650832 94.354653 
L 71.476697 94.450439 
L 73.302561 92.370248 
L 75.128425 92.608679 
L 76.954289 92.169167 
L 78.780154 89.240249 
L 80.606018 87.868972 
L 82.431882 87.585498 
L 84.257746 90.273796 
L 86.083611 90.126618 
L 87.909475 88.745903 
L 89.735339 89.691732 
L 91.561204 90.048713 
L 93.387068 90.204333 
L 95.212932 87.814013 
L 97.038796 88.567581 
L 98.864661 87.1043 
L 100.690525 83.949688 
L 102.516389 82.310496 
L 104.342254 80.152347 
L 106.168118 78.461123 
L 107.993982 75.402105 
L 109.819846 74.811216 
L 111.645711 72.703505 
L 113.471575 69.992355 
L 115.297439 69.805113 
L 117.123303 67.260202 
L 118.949168 66.330416 
L 120.775032 64.678038 
L 122.600896 64.151522 
L 124.426761 64.18302 
L 126.252625 63.448998 
L 128.078489 61.486819 
L 129.904353 60.277586 
L 131.730218 59.537502 
L 133.556082 58.21695 
L 135.381946 55.82704 
L 137.20781 53.66699 
L 139.033675 53.563793 
L 140.859539 51.574339 
L 142.685403 51.432101 
L 144.511268 50.453273 
L 146.337132 49.936713 
L 148.162996 49.19051 
L 149.98886 47.359077 
L 151.814725 45.306418 
L 153.640589 44.739909 
L 155.466453 42.675322 
L 157.292318 42.722934 
L 159.118182 38.989182 
" clip-path="url(#p43ab3c906e)" style="fill: none; stroke: #ff7f0e; stroke-opacity: 0.95; stroke-width: 2; stroke-linecap: square"/>
   </g>
   <g id="line2d_16">
    <path d="M 29.481818 137.95 
L 29.481818 18.6 
" clip-path="url(#p43ab3c906e)" style="fill: none; stroke: #000000; stroke-linecap: square"/>
   </g>
   <g id="patch_3">
    <path d="M 23 137.95 
L 23 18.6 
" style="fill: none; stroke: #000000; stroke-width: 0.8; stroke-linejoin: miter; stroke-linecap: square"/>
   </g>
   <g id="patch_4">
    <path d="M 23 137.95 
L 165.6 137.95 
" style="fill: none; stroke: #000000; stroke-width: 0.8; stroke-linejoin: miter; stroke-linecap: square"/>
   </g>
   <g id="text_9">
    <text style="fill: #daa520; font: 10px 'Helvetica'; text-anchor: start" x="37.26" y="37.708438" transform="rotate(-0 37.26 37.708438)">R² 0.940</text>
   </g>
   <g id="text_10">
    <text style="fill: #cc5500; font: 10px 'Helvetica'; text-anchor: start" x="37.26" y="47.256438" transform="rotate(-0 37.26 47.256438)">R² 0.944</text>
   </g>
  </g>
 </g>
 <defs>
  <clipPath id="p43ab3c906e">
   <rect x="23" y="18.6" width="142.6" height="119.35"/>
  </clipPath>
 </defs>
</svg>
