<?xml version="1.0" encoding="utf-8" standalone="no"?>
<!DOCTYPE svg PUBLIC "-//W3C//DTD SVG 1.1//EN"
  "http://www.w3.org/Graphics/SVG/1.1/DTD/svg11.dtd">
<svg xmlns:xlink="http://www.w3.org/1999/xlink" width="273.6pt" height="216pt" viewBox="0 0 273.6 216" xmlns="http://www.w3.org/2000/svg" version="1.1">
 <metadata>
  <rdf:RDF xmlns:dc="http://purl.org/dc/elements/1.1/" xmlns:cc="http://creativecommons.org/ns#" xmlns:rdf="http://www.w3.org/1999/02/22-rdf-syntax-ns#">
   <cc:Work>
    <dc:type rdf:resource="http://purl.org/dc/dcmitype/StillImage"/>
    <dc:date>2026-08-13T10:45:05.990838</dc:date>
    <dc:format>image/svg+xml</dc:format>
    <dc:creator>
     <cc:Agent>
      <dc:title>Matplotlib v3.9.2, https://matplotlib.org/</dc:title>
     </cc:Agent>
    </dc:creator>
   </cc:Work>
  </rdf:RDF>
 </metadata>
 <defs>
  <style type="text/css">*{stroke-linejoin: round; stroke-linecap: butt}</style>
 </defs>
 <g id="figure_1">
  <g id="patch_1">
   <path d="M 0 216 
L 273.6 216 
L 273.6 0 
L 0 0 
L 0 216 
z
" style="fill: none; opacity: 0"/>
  </g>
  <g id="axes_1">
   <g id="patch_2">
    <path d="M 67.84 172.6 
L 262.8 172.6 
L 262.8 25.44 
L 67.84 25.44 
L 67.84 172.6 
z
" style="fill: none"/>
   </g>
   <g id="matplotlib.axis_1">
    <g id="xtick_1">
     <g id="line2d_1">
      <defs>
       <path id="m49f6d364bd" d="M 0 0 
L 0 3.5 
" style="stroke: #000000; stroke-width: 0.8"/>
      </defs>
      <g>
       <use xlink:href="#m49f6d364bd" x="75.512312" y="172.6" style="stroke: #000000; stroke-width: 0.8"/>
      </g>
     </g>
     <g id="text_1">
      <text style="font: 12px 'Helvetica'; text-anchor: middle" x="75.512312" y="188.208125" transform="rotate(-0 75.512312 188.208125)">−300</text>
     </g>
    </g>
    <g id="xtick_2">
     <g id="line2d_2">
      <g>
       <use xlink:href="#m49f6d364bd" x="134.987602" y="172.6" style="stroke: #000000; stroke-width: 0.8"/>
      </g>
     </g>
     <g id="text_2">
      <text style="font: 12px 'Helvetica'; text-anchor: middle" x="134.987602" y="188.208125" transform="rotate(-0 134.987602 188.208125)">−200</text>
     </g>
    </g>
    <g id="xtick_3">
     <g id="line2d_3">
      <g>
       <use xlink:href="#m49f6d364bd" x="194.462892" y="172.6" style="stroke: #000000; stroke-width: 0.8"/>
      </g>
     </g>
     <g id="text_3">
      <text style="font: 12px 'Helvetica'; text-anchor: middle" x="194.462892" y="188.208125" transform="rotate(-0 194.462892 188.208125)">−100</text>
     </g>
    </g>
    <g id="xtick_4">
     <g id="line2d_4">
      <g>
       <use xlink:href="#m49f6d364bd" x="253.938182" y="172.6" style="stroke: #000000; stroke-width: 0.8"/>
      </g>
     </g>
     <g id="text_4">
      <text style="font: 12px 'Helvetica'; text-anchor: middle" x="253.938182" y="188.208125" transform="rotate(-0 253.938182 188.208125)">0</text>
     </g>
    </g>
    <g id="text_5">
     <text style="font: 12px 'Helvetica'; text-anchor: middle" x="165.32" y="203.405625" transform="rotate(-0 165.32 203.405625)">time (ms)</text>
    </g>
   </g>
   <g id="matplotlib.axis_2">
    <g id="ytick_1">
     <g id="line2d_5">
      <defs>
       <path id="mb61099ac8e" d="M 0 0 
L -3.5 0 
" style="stroke: #000000; stroke-width: 0.8"/>
      </defs>
      <g>
       <use xlink:href="#mb61099ac8e" x="67.84" y="152.116357" style="stroke: #000000; stroke-width: 0.8"/>
      </g>
     </g>
     <g id="text_6">
      <text style="font: 12px 'Helvetica'; text-anchor: end" x="60.84" y="156.42042" transform="rotate(-0 60.84 156.42042)">0.000225</text>
     </g>
    </g>
    <g id="ytick_2">
     <g id="line2d_6">
      <g>
       <use xlink:href="#mb61099ac8e" x="67.84" y="112.045159" style="stroke: #000000; stroke-width: 0.8"/>
      </g>
     </g>
     <g id="text_7">
      <text style="font: 12px 'Helvetica'; text-anchor: end" x="60.84" y="116.349222" transform="rotate(-0 60.84 116.349222)">0.000230</text>
     </g>
    </g>
    <g id="ytick_3">
     <g id="line2d_7">
      <g>
       <use xlink:href="#mb61099ac8e" x="67.84" y="71.973961" style="stroke: #000000; stroke-width: 0.8"/>
      </g>
     </g>
     <g id="text_8">
      <text style="font: 12px 'Helvetica'; text-anchor: end" x="60.84" y="76.278023" transform="rotate(-0 60.84 76.278023)">0.000235</text>
     </g>
    </g>
    <g id="ytick_4">
     <g id="line2d_8">
      <g>
       <use xlink:href="#mb61099ac8e" x="67.84" y="31.902763" style="stroke: #000000; stroke-width: 0.8"/>
      </g>
     </g>
     <g id="text_9">
      <text style="font: 12px 'Helvetica'; text-anchor: end" x="60.84" y="36.206825" transform="rotate(-0 60.84 36.206825)">0.000240</text>
     </g>
    </g>
   </g>
   <g id="line2d_9">
    <path d="M 76.701818 32.129091 
L 117.145015 66.260697 
L 150.451178 94.082915 
L 181.378328 119.635641 
L 196.841904 132.239342 
L 201.599927 135.758233 
L 206.35795 138.969292 
L 211.115973 141.892558 
L 215.873996 144.546762 
L 220.63202 146.949414 
L 225.390043 149.11688 
L 230.148066 151.064457 
L 234.906089 152.806444 
L 240.853618 154.715095 
L 246.801147 156.347538 
L 252.748676 157.726016 
L 253.938182 157.973065 
L 253.938182 157.973065 
" clip-path="url(#p33a23282bb)" style="fill: none; stroke-dasharray: 7.4,3.2; stroke-dashoffset: 0; stroke: #6a3d9a; stroke-width: 2"/>
   </g>
   <g id="line2d_10">
    <path d="M 76.701818 40.624182 
L 117.145015 74.604363 
L 150.451178 102.303368 
L 181.378328 127.743039 
L 196.841904 140.291003 
L 201.599927 143.794334 
L 206.35795 146.991193 
L 211.115973 149.901532 
L 215.873996 152.543998 
L 220.63202 154.936024 
L 225.390043 157.093904 
L 230.148066 159.032866 
L 234.906089 160.767147 
L 240.853618 162.667356 
L 246.801147 164.292575 
L 252.748676 165.664953 
L 253.938182 165.910909 
L 253.938182 165.910909 
" clip-path="url(#p33a23282bb)" style="fill: none; stroke-dasharray: 7.4,3.2; stroke-dashoffset: 0; stroke: #8b5fbf; stroke-width: 2"/>
   </g>
   <g id="line2d_11">
    <path d="M 253.938182 172.6 
L 253.938182 25.44 
" clip-path="url(#p33a23282bb)" style="fill: none; stroke: #000000; stroke-linecap: square"/>
   </g>
   <g id="patch_3">
    <path d="M 67.84 172.6 
L 67.84 25.44 
" style="fill: none; stroke: #000000; stroke-width: 0.8; stroke-linejoin: miter; stroke-linecap: square"/>
   </g>
   <g id="patch_4">
    <path d="M 67.84 172.6 
L 262.8 172.6 
" style="fill: none; stroke: #000000; stroke-width: 0.8; stroke-linejoin: miter; stroke-linecap: square"/>
   </g>
   <g id="text_10">
    <text style="font: 12px 'Helvetica'; text-anchor: middle" x="165.32" y="19.44" transform="rotate(-0 165.32 19.44)">Prior (P)</text>
   </g>
  </g>
 </g>
 <defs>
  <clipPath id="p33a23282bb">
   <rect x="67.84" y="25.44" width="194.96" height="147.16"/>
  </clipPath>
 </defs>
</svg>
