<?xml version="1.0" encoding="utf-8" standalone="no"?>
<!DOCTYPE svg PUBLIC "-//W3C//DTD SVG 1.1//EN"
  "http://www.w3.org/Graphics/SVG/1.1/DTD/svg11.dtd">
<svg xmlns:xlink="http://www.w3.org/1999/xlink" width="273.6pt" height="216pt" viewBox="0 0 273.6 216" xmlns="http://www.w3.org/2000/svg" version="1.1">
 <metadata>
  <rdf:RDF xmlns:dc="http://purl.org/dc/elements/1.1/" xmlns:cc="http://creativecommons.org/ns#" xmlns:rdf="http://www.w3.org/1999/02/22-rdf-syntax-ns#">
   <cc:Work>
    <dc:type rdf:resource="http://purl.org/dc/dcmitype/StillImage"/>
    <dc:date>2026-08-13T10:45:11.144239</dc:date>
    <dc:format>image/svg+xml</dc:format>
    <dc:creator>
     <cc:Agent>
      <dc:title>Matplotlib v3.9.2, https://matplotlib.org/</dc:title>
     </cc:Agent>
    </dc:creator>
   </cc:Work>
  </rdf:RDF>
 </metadata>
 <defs>
  <style type="text/css">*{stroke-linejoin: round; stroke-linecap: butt}</style>
 </defs>
 <g id="figure_1">
  <g id="patch_1">
   <path d="M 0 216 
L 273.6 216 
L 273.6 0 
L 0 0 
L 0 216 
z
" style="fill: none; opacity: 0"/>
  </g>
  <g id="axes_1">
   <g id="patch_2">
    <path d="M 67.84 172.6 
L 262.8 172.6 
L 262.8 25.44 
L 67.84 25.44 
L 67.84 172.6 
z
" style="fill: none"/>
   </g>
   <g id="matplotlib.axis_1">
    <g id="xtick_1">
     <g id="line2d_1">
      <defs>
       <path id="m2342346987" d="M 0 0 
L 0 3.5 
" style="stroke: #000000; stroke-width: 0.8"/>
      </defs>
      <g>
       <use xlink:href="#m2342346987" x="75.512312" y="172.6" style="stroke: #000000; stroke-width: 0.8"/>
      </g>
     </g>
     <g id="text_1">
      <text style="font: 12px 'Helvetica'; text-anchor: middle" x="75.512312" y="188.208125" transform="rotate(-0 75.512312 188.208125)">−300</text>
     </g>
    </g>
    <g id="xtick_2">
     <g id="line2d_2">
      <g>
       <use xlink:href="#m2342346987" x="134.987602" y="172.6" style="stroke: #000000; stroke-width: 0.8"/>
      </g>
     </g>
     <g id="text_2">
      <text style="font: 12px 'Helvetica'; text-anchor: middle" x="134.987602" y="188.208125" transform="rotate(-0 134.987602 188.208125)">−200</text>
     </g>
    </g>
    <g id="xtick_3">
     <g id="line2d_3">
      <g>
       <use xlink:href="#m2342346987" x="194.462892" y="172.6" style="stroke: #000000; stroke-width: 0.8"/>
      </g>
     </g>
     <g id="text_3">
      <text style="font: 12px 'Helvetica'; text-anchor: middle" x="194.462892" y="188.208125" transform="rotate(-0 194.462892 188.208125)">−100</text>
     </g>
    </g>
    <g id="xtick_4">
     <g id="line2d_4">
      <g>
       <use xlink:href="#m2342346987" x="253.938182" y="172.6" style="stroke: #000000; stroke-width: 0.8"/>
      </g>
     </g>
     <g id="text_4">
      <text style="font: 12px 'Helvetica'; text-anchor: middle" x="253.938182" y="188.208125" transform="rotate(-0 253.938182 188.208125)">0</text>
     </g>
    </g>
    <g id="text_5">
     <text style="font: 12px 'Helvetica'; text-anchor: middle" x="165.32" y="203.405625" transform="rotate(-0 165.32 203.405625)">time (ms)</text>
    </g>
   </g>
   <g id="matplotlib.axis_2">
    <g id="ytick_1">
     <g id="line2d_5">
      <defs>
       <path id="m122d4601ef" d="M 0 0 
L -3.5 0 
" style="stroke: #000000; stroke-width: 0.8"/>
      </defs>
      <g>
       <use xlink:href="#m122d4601ef" x="67.84" y="168.896797" style="stroke: #000000; stroke-width: 0.8"/>
      </g>
     </g>
     <g id="text_6">
      <text style="font: 12px 'Helvetica'; text-anchor: end" x="60.84" y="173.20086" transform="rotate(-0 60.84 173.20086)">0.000132</text>
     </g>
    </g>
    <g id="ytick_2">
     <g id="line2d_6">
      <g>
       <use xlink:href="#m122d4601ef" x="67.84" y="129.935791" style="stroke: #000000; stroke-width: 0.8"/>
      </g>
     </g>
     <g id="text_7">
      <text style="font: 12px 'Helvetica'; text-anchor: end" x="60.84" y="134.239854" transform="rotate(-0 60.84 134.239854)">0.000138</text>
     </g>
    </g>
    <g id="ytick_3">
     <g id="line2d_7">
      <g>
       <use xlink:href="#m122d4601ef" x="67.84" y="90.974785" style="stroke: #000000; stroke-width: 0.8"/>
      </g>
     </g>
     <g id="text_8">
      <text style="font: 12px 'Helvetica'; text-anchor: end" x="60.84" y="95.278848" transform="rotate(-0 60.84 95.278848)">0.000144</text>
     </g>
    </g>
    <g id="ytick_4">
     <g id="line2d_8">
      <g>
       <use xlink:href="#m122d4601ef" x="67.84" y="52.013779" style="stroke: #000000; stroke-width: 0.8"/>
      </g>
     </g>
     <g id="text_9">
      <text style="font: 12px 'Helvetica'; text-anchor: end" x="60.84" y="56.317842" transform="rotate(-0 60.84 56.317842)">0.000150</text>
     </g>
    </g>
   </g>
   <g id="line2d_9">
    <path d="M 76.701818 32.129091 
L 112.386992 54.371623 
L 143.314143 73.398086 
L 173.051788 91.43094 
L 196.841904 105.618923 
L 202.789433 108.848239 
L 208.736962 111.79038 
L 214.684491 114.466956 
L 220.63202 116.897952 
L 226.579549 119.101844 
L 232.527077 121.095718 
L 239.664112 123.233299 
L 246.801147 125.116191 
L 253.938182 126.767198 
L 253.938182 126.767198 
" clip-path="url(#p6e5ecfd050)" style="fill: none; stroke-dasharray: 7.4,3.2; stroke-dashoffset: 0; stroke: #6a3d9a; stroke-width: 2"/>
   </g>
   <g id="line2d_10">
    <path d="M 76.701818 75.393102 
L 113.576498 97.371512 
L 145.693154 116.254419 
L 175.430799 133.481408 
L 196.841904 145.68329 
L 202.789433 148.772024 
L 208.736962 151.586085 
L 214.684491 154.146141 
L 220.63202 156.471308 
L 226.579549 158.579257 
L 233.716583 160.84499 
L 240.853618 162.847311 
L 247.990653 164.609809 
L 253.938182 165.910909 
L 253.938182 165.910909 
" clip-path="url(#p6e5ecfd050)" style="fill: none; stroke-dasharray: 7.4,3.2; stroke-dashoffset: 0; stroke: #8b5fbf; stroke-width: 2"/>
   </g>
   <g id="line2d_11">
    <path d="M 253.938182 172.6 
L 253.938182 25.44 
" clip-path="url(#p6e5ecfd050)" style="fill: none; stroke: #000000; stroke-linecap: square"/>
   </g>
   <g id="patch_3">
    <path d="M 67.84 172.6 
L 67.84 25.44 
" style="fill: none; stroke: #000000; stroke-width: 0.8; stroke-linejoin: miter; stroke-linecap: square"/>
   </g>
   <g id="patch_4">
    <path d="M 67.84 172.6 
L 262.8 172.6 
" style="fill: none; stroke: #000000; stroke-width: 0.8; stroke-linejoin: miter; stroke-linecap: square"/>
   </g>
   <g id="text_10">
    <text style="font: 12px 'Helvetica'; text-anchor: middle" x="165.32" y="19.44" transform="rotate(-0 165.32 19.44)">Prior (P)</text>
   </g>
  </g>
 </g>
 <defs>
  <clipPath id="p6e5ecfd050">
   <rect x="67.84" y="25.44" width="194.96" height="147.16"/>
  </clipPath>
 </defs>
</svg>
